<svg xmlns="http://www.w3.org/2000/svg" viewBox="0 0 169.76 31.76"><g style="isolation:isolate"><g id="Layer_2" data-name="Layer 2"><g id="Layer_1-2" data-name="Layer 1"><g opacity="0.65" style="mix-blend-mode:overlay"><path d="M.88,1.76A.87.87,0,0,0,1.76.88.87.87,0,0,0,.88,0,.87.87,0,0,0,0,.88.87.87,0,0,0,.88,1.76Z" fill="#003134"/><path d="M6.88,1.76A.87.87,0,0,0,7.76.88.88.88,0,0,0,6,.88.87.87,0,0,0,6.88,1.76Z" fill="#003134"/><path d="M12.88,1.76a.87.87,0,0,0,.88-.88A.88.88,0,0,0,12,.88.87.87,0,0,0,12.88,1.76Z" fill="#003134"/><path d="M18.88,1.76a.87.87,0,0,0,.88-.88A.88.88,0,0,0,18,.88.87.87,0,0,0,18.88,1.76Z" fill="#003134"/><path d="M24.88,1.76a.87.87,0,0,0,.88-.88A.88.88,0,0,0,24,.88.87.87,0,0,0,24.88,1.76Z" fill="#003134"/><path d="M30.88,1.76a.87.87,0,0,0,.88-.88A.88.88,0,0,0,30,.88.87.87,0,0,0,30.88,1.76Z" fill="#003134"/><path d="M36.88,1.76a.87.87,0,0,0,.88-.88A.88.88,0,1,0,36,.88.87.87,0,0,0,36.88,1.76Z" fill="#003134"/><path d="M42.88,1.76a.87.87,0,0,0,.88-.88A.88.88,0,1,0,42,.88.87.87,0,0,0,42.88,1.76Z" fill="#003134"/><path d="M48.88,1.76a.87.87,0,0,0,.88-.88A.88.88,0,1,0,48,.88.87.87,0,0,0,48.88,1.76Z" fill="#003134"/><path d="M54.88,1.76a.87.87,0,0,0,.88-.88A.88.88,0,1,0,54,.88.87.87,0,0,0,54.88,1.76Z" fill="#003134"/><path d="M60.88,1.76a.87.87,0,0,0,.88-.88A.88.88,0,1,0,60,.88.87.87,0,0,0,60.88,1.76Z" fill="#003134"/><path d="M66.88,1.76a.87.87,0,0,0,.88-.88A.88.88,0,0,0,66,.88.87.87,0,0,0,66.88,1.76Z" fill="#003134"/><path d="M72.88,1.76a.87.87,0,0,0,.88-.88A.88.88,0,0,0,72,.88.87.87,0,0,0,72.88,1.76Z" fill="#003134"/><path d="M78.88,1.76a.87.87,0,0,0,.88-.88A.88.88,0,0,0,78,.88.87.87,0,0,0,78.88,1.76Z" fill="#003134"/><path d="M84.88,1.76a.87.87,0,0,0,.88-.88A.88.88,0,0,0,84,.88.87.87,0,0,0,84.88,1.76Z" fill="#003134"/><path d="M90.88,1.76a.87.87,0,0,0,.88-.88A.88.88,0,0,0,90,.88.87.87,0,0,0,90.88,1.76Z" fill="#003134"/><path d="M96.88,1.76a.87.87,0,0,0,.88-.88A.88.88,0,0,0,96,.88.87.87,0,0,0,96.88,1.76Z" fill="#003134"/><path d="M102.88,1.76a.87.87,0,0,0,.88-.88.88.88,0,0,0-1.76,0A.87.87,0,0,0,102.88,1.76Z" fill="#003134"/><path d="M108.88,1.76a.87.87,0,0,0,.88-.88.88.88,0,0,0-1.76,0A.87.87,0,0,0,108.88,1.76Z" fill="#003134"/><path d="M114.88,1.76a.87.87,0,0,0,.88-.88.88.88,0,0,0-1.76,0A.87.87,0,0,0,114.88,1.76Z" fill="#003134"/><path d="M120.88,1.76a.87.87,0,0,0,.88-.88.88.88,0,0,0-1.76,0A.87.87,0,0,0,120.88,1.76Z" fill="#003134"/><path d="M126.88,1.76a.87.87,0,0,0,.88-.88.88.88,0,0,0-1.76,0A.87.87,0,0,0,126.88,1.76Z" fill="#003134"/><path d="M132.88,1.76a.87.87,0,0,0,.88-.88.88.88,0,1,0-1.76,0A.87.87,0,0,0,132.88,1.76Z" fill="#003134"/><path d="M138.88,1.76a.87.87,0,0,0,.88-.88.88.88,0,1,0-1.76,0A.87.87,0,0,0,138.88,1.76Z" fill="#003134"/><path d="M144.88,1.76a.87.87,0,0,0,.88-.88.88.88,0,1,0-1.76,0A.87.87,0,0,0,144.88,1.76Z" fill="#003134"/><path d="M150.88,1.76a.87.87,0,0,0,.88-.88.88.88,0,1,0-1.76,0A.87.87,0,0,0,150.88,1.76Z" fill="#003134"/><path d="M156.88,1.76a.87.87,0,0,0,.88-.88.88.88,0,1,0-1.76,0A.87.87,0,0,0,156.88,1.76Z" fill="#003134"/><path d="M162.88,1.76a.87.87,0,0,0,.88-.88.88.88,0,1,0-1.76,0A.87.87,0,0,0,162.88,1.76Z" fill="#003134"/><path d="M168.88,1.76a.87.87,0,0,0,.88-.88.88.88,0,1,0-1.76,0A.87.87,0,0,0,168.88,1.76Z" fill="#003134"/><path d="M.88,7.76A.88.88,0,0,0,.88,6a.88.88,0,0,0,0,1.76Z" fill="#003134"/><path d="M6.88,7.76A.88.88,0,1,0,6,6.88.87.87,0,0,0,6.88,7.76Z" fill="#003134"/><path d="M12.88,7.76A.88.88,0,1,0,12,6.88.87.87,0,0,0,12.88,7.76Z" fill="#003134"/><path d="M18.88,7.76A.88.88,0,1,0,18,6.88.87.87,0,0,0,18.88,7.76Z" fill="#003134"/><path d="M24.88,7.76A.88.88,0,1,0,24,6.88.87.87,0,0,0,24.88,7.76Z" fill="#003134"/><path d="M30.88,7.76A.88.88,0,1,0,30,6.88.87.87,0,0,0,30.88,7.76Z" fill="#003134"/><path d="M36.88,7.76A.88.88,0,1,0,36,6.88.87.87,0,0,0,36.88,7.76Z" fill="#003134"/><path d="M42.88,7.76A.88.88,0,1,0,42,6.88.87.87,0,0,0,42.88,7.76Z" fill="#003134"/><path d="M48.88,7.76A.88.88,0,1,0,48,6.88.87.87,0,0,0,48.88,7.76Z" fill="#003134"/><path d="M54.88,7.76A.88.88,0,1,0,54,6.88.87.87,0,0,0,54.88,7.76Z" fill="#003134"/><path d="M60.88,7.76A.88.88,0,1,0,60,6.88.87.87,0,0,0,60.88,7.76Z" fill="#003134"/><path d="M66.88,7.76A.88.88,0,1,0,66,6.88.87.87,0,0,0,66.88,7.76Z" fill="#003134"/><path d="M72.88,7.76A.88.88,0,1,0,72,6.88.87.87,0,0,0,72.88,7.76Z" fill="#003134"/><path d="M78.88,7.76A.88.88,0,1,0,78,6.88.87.87,0,0,0,78.88,7.76Z" fill="#003134"/><path d="M84.88,7.76A.88.88,0,1,0,84,6.88.87.87,0,0,0,84.88,7.76Z" fill="#003134"/><path d="M90.88,7.76A.88.88,0,1,0,90,6.88.87.87,0,0,0,90.88,7.76Z" fill="#003134"/><path d="M96.88,7.76A.88.88,0,1,0,96,6.88.87.87,0,0,0,96.88,7.76Z" fill="#003134"/><path d="M102.88,7.76a.88.88,0,1,0-.88-.88A.87.87,0,0,0,102.88,7.76Z" fill="#003134"/><path d="M108.88,7.76a.88.88,0,1,0-.88-.88A.87.87,0,0,0,108.88,7.76Z" fill="#003134"/><path d="M114.88,7.76a.88.88,0,1,0-.88-.88A.87.87,0,0,0,114.88,7.76Z" fill="#003134"/><path d="M120.88,7.76a.88.88,0,1,0-.88-.88A.87.87,0,0,0,120.88,7.76Z" fill="#003134"/><path d="M126.88,7.76a.88.88,0,1,0-.88-.88A.87.87,0,0,0,126.88,7.76Z" fill="#003134"/><path d="M132.88,7.76a.88.88,0,1,0-.88-.88A.87.87,0,0,0,132.88,7.76Z" fill="#003134"/><path d="M138.88,7.76a.88.88,0,1,0-.88-.88A.87.87,0,0,0,138.88,7.76Z" fill="#003134"/><path d="M144.88,7.76a.88.88,0,1,0-.88-.88A.87.87,0,0,0,144.88,7.76Z" fill="#003134"/><path d="M150.88,7.76a.88.88,0,1,0-.88-.88A.87.87,0,0,0,150.88,7.76Z" fill="#003134"/><path d="M156.88,7.76a.88.88,0,1,0-.88-.88A.87.87,0,0,0,156.88,7.76Z" fill="#003134"/><path d="M162.88,7.76a.88.88,0,1,0-.88-.88A.87.87,0,0,0,162.88,7.76Z" fill="#003134"/><path d="M168.88,7.76a.88.88,0,1,0-.88-.88A.87.87,0,0,0,168.88,7.76Z" fill="#003134"/><path d="M.88,13.76A.88.88,0,1,0,.88,12a.88.88,0,0,0,0,1.76Z" fill="#003134"/><path d="M6.88,13.76A.88.88,0,1,0,6,12.88.87.87,0,0,0,6.88,13.76Z" fill="#003134"/><path d="M12.88,13.76a.88.88,0,1,0-.88-.88A.87.87,0,0,0,12.88,13.76Z" fill="#003134"/><path d="M18.88,13.76a.88.88,0,1,0-.88-.88A.87.87,0,0,0,18.88,13.76Z" fill="#003134"/><path d="M24.88,13.76a.88.88,0,1,0-.88-.88A.87.87,0,0,0,24.88,13.76Z" fill="#003134"/><path d="M30.88,13.76a.88.88,0,1,0-.88-.88A.87.87,0,0,0,30.88,13.76Z" fill="#003134"/><path d="M36.88,13.76a.88.88,0,1,0-.88-.88A.87.87,0,0,0,36.88,13.76Z" fill="#003134"/><path d="M42.88,13.76a.88.88,0,1,0-.88-.88A.87.87,0,0,0,42.88,13.76Z" fill="#003134"/><path d="M48.88,13.76a.88.88,0,1,0-.88-.88A.87.87,0,0,0,48.88,13.76Z" fill="#003134"/><path d="M54.88,13.76a.88.88,0,1,0-.88-.88A.87.87,0,0,0,54.88,13.76Z" fill="#003134"/><path d="M60.88,13.76a.88.88,0,1,0-.88-.88A.87.87,0,0,0,60.88,13.76Z" fill="#003134"/><path d="M66.88,13.76a.88.88,0,1,0-.88-.88A.87.87,0,0,0,66.88,13.76Z" fill="#003134"/><path d="M72.88,13.76a.88.88,0,1,0-.88-.88A.87.87,0,0,0,72.88,13.76Z" fill="#003134"/><path d="M78.88,13.76a.88.88,0,1,0-.88-.88A.87.87,0,0,0,78.88,13.76Z" fill="#003134"/><path d="M84.88,13.76a.88.88,0,1,0-.88-.88A.87.87,0,0,0,84.88,13.76Z" fill="#003134"/><path d="M90.88,13.76a.88.88,0,1,0-.88-.88A.87.87,0,0,0,90.88,13.76Z" fill="#003134"/><path d="M96.88,13.76a.88.88,0,1,0-.88-.88A.87.87,0,0,0,96.88,13.76Z" fill="#003134"/><path d="M102.88,13.76a.88.88,0,1,0-.88-.88A.87.87,0,0,0,102.88,13.76Z" fill="#003134"/><path d="M108.88,13.76a.88.88,0,1,0-.88-.88A.87.87,0,0,0,108.88,13.76Z" fill="#003134"/><path d="M114.88,13.76a.88.88,0,1,0-.88-.88A.87.87,0,0,0,114.88,13.76Z" fill="#003134"/><path d="M120.88,13.76a.88.88,0,1,0-.88-.88A.87.87,0,0,0,120.88,13.76Z" fill="#003134"/><path d="M126.88,13.76a.88.88,0,1,0-.88-.88A.87.87,0,0,0,126.88,13.76Z" fill="#003134"/><path d="M132.88,13.76a.88.88,0,1,0-.88-.88A.87.87,0,0,0,132.88,13.76Z" fill="#003134"/><path d="M138.88,13.76a.88.88,0,1,0-.88-.88A.87.87,0,0,0,138.88,13.76Z" fill="#003134"/><path d="M144.88,13.76a.88.88,0,1,0-.88-.88A.87.87,0,0,0,144.88,13.76Z" fill="#003134"/><path d="M150.88,13.76a.88.88,0,1,0-.88-.88A.87.87,0,0,0,150.88,13.76Z" fill="#003134"/><path d="M156.88,13.76a.88.88,0,1,0-.88-.88A.87.87,0,0,0,156.88,13.76Z" fill="#003134"/><path d="M162.88,13.76a.88.88,0,1,0-.88-.88A.87.87,0,0,0,162.88,13.76Z" fill="#003134"/><path d="M168.88,13.76a.88.88,0,1,0-.88-.88A.87.87,0,0,0,168.88,13.76Z" fill="#003134"/><path d="M.88,19.76A.88.88,0,0,0,.88,18a.88.88,0,0,0,0,1.76Z" fill="#003134"/><path d="M6.88,19.76A.88.88,0,1,0,6,18.88.87.87,0,0,0,6.88,19.76Z" fill="#003134"/><path d="M12.88,19.76a.88.88,0,1,0-.88-.88A.87.87,0,0,0,12.88,19.76Z" fill="#003134"/><path d="M18.88,19.76a.88.88,0,1,0-.88-.88A.87.87,0,0,0,18.88,19.76Z" fill="#003134"/><path d="M24.88,19.76a.88.88,0,1,0-.88-.88A.87.87,0,0,0,24.88,19.76Z" fill="#003134"/><path d="M30.88,19.76a.88.88,0,1,0-.88-.88A.87.87,0,0,0,30.88,19.76Z" fill="#003134"/><path d="M36.88,19.76a.88.88,0,1,0-.88-.88A.87.87,0,0,0,36.88,19.76Z" fill="#003134"/><path d="M42.88,19.76a.88.88,0,1,0-.88-.88A.87.87,0,0,0,42.88,19.76Z" fill="#003134"/><path d="M48.88,19.76a.88.88,0,1,0-.88-.88A.87.87,0,0,0,48.88,19.76Z" fill="#003134"/><path d="M54.88,19.76a.88.88,0,1,0-.88-.88A.87.87,0,0,0,54.88,19.76Z" fill="#003134"/><path d="M60.88,19.76a.88.88,0,1,0-.88-.88A.87.87,0,0,0,60.88,19.76Z" fill="#003134"/><path d="M66.88,19.76a.88.88,0,1,0-.88-.88A.87.87,0,0,0,66.88,19.76Z" fill="#003134"/><path d="M72.88,19.76a.88.88,0,1,0-.88-.88A.87.87,0,0,0,72.88,19.76Z" fill="#003134"/><path d="M78.88,19.76a.88.88,0,1,0-.88-.88A.87.87,0,0,0,78.88,19.76Z" fill="#003134"/><path d="M84.88,19.76a.88.88,0,1,0-.88-.88A.87.87,0,0,0,84.88,19.76Z" fill="#003134"/><path d="M90.88,19.76a.88.88,0,1,0-.88-.88A.87.87,0,0,0,90.88,19.76Z" fill="#003134"/><path d="M96.88,19.76a.88.88,0,1,0-.88-.88A.87.87,0,0,0,96.88,19.76Z" fill="#003134"/><path d="M102.88,19.76a.88.88,0,1,0-.88-.88A.87.87,0,0,0,102.88,19.76Z" fill="#003134"/><path d="M108.88,19.76a.88.88,0,1,0-.88-.88A.87.87,0,0,0,108.88,19.76Z" fill="#003134"/><path d="M114.88,19.76a.88.88,0,1,0-.88-.88A.87.87,0,0,0,114.88,19.76Z" fill="#003134"/><path d="M120.88,19.76a.88.88,0,1,0-.88-.88A.87.87,0,0,0,120.88,19.76Z" fill="#003134"/><path d="M126.88,19.76a.88.88,0,1,0-.88-.88A.87.87,0,0,0,126.88,19.76Z" fill="#003134"/><path d="M132.88,19.76a.88.88,0,1,0-.88-.88A.87.87,0,0,0,132.88,19.76Z" fill="#003134"/><path d="M138.88,19.76a.88.88,0,1,0-.88-.88A.87.87,0,0,0,138.88,19.76Z" fill="#003134"/><path d="M144.88,19.76a.88.88,0,1,0-.88-.88A.87.87,0,0,0,144.88,19.76Z" fill="#003134"/><path d="M150.88,19.76a.88.88,0,1,0-.88-.88A.87.87,0,0,0,150.88,19.76Z" fill="#003134"/><path d="M156.88,19.76a.88.88,0,1,0-.88-.88A.87.87,0,0,0,156.88,19.76Z" fill="#003134"/><path d="M162.88,19.76a.88.88,0,1,0-.88-.88A.87.87,0,0,0,162.88,19.76Z" fill="#003134"/><path d="M168.88,19.76a.88.88,0,1,0-.88-.88A.87.87,0,0,0,168.88,19.76Z" fill="#003134"/><path d="M.88,25.76A.88.88,0,0,0,.88,24a.88.88,0,0,0,0,1.76Z" fill="#003134"/><path d="M6.88,25.76A.88.88,0,1,0,6,24.88.87.87,0,0,0,6.88,25.76Z" fill="#003134"/><path d="M12.88,25.76a.88.88,0,1,0-.88-.88A.87.87,0,0,0,12.88,25.76Z" fill="#003134"/><path d="M18.88,25.76a.88.88,0,1,0-.88-.88A.87.87,0,0,0,18.88,25.76Z" fill="#003134"/><path d="M24.88,25.76a.88.88,0,1,0-.88-.88A.87.87,0,0,0,24.88,25.76Z" fill="#003134"/><path d="M30.88,25.76a.88.88,0,1,0-.88-.88A.87.87,0,0,0,30.88,25.76Z" fill="#003134"/><path d="M36.88,25.76a.88.88,0,1,0-.88-.88A.87.87,0,0,0,36.88,25.76Z" fill="#003134"/><path d="M42.88,25.76a.88.88,0,1,0-.88-.88A.87.87,0,0,0,42.88,25.76Z" fill="#003134"/><path d="M48.88,25.76a.88.88,0,1,0-.88-.88A.87.87,0,0,0,48.88,25.76Z" fill="#003134"/><path d="M54.88,25.76a.88.88,0,1,0-.88-.88A.87.87,0,0,0,54.88,25.76Z" fill="#003134"/><path d="M60.88,25.76a.88.88,0,1,0-.88-.88A.87.87,0,0,0,60.88,25.76Z" fill="#003134"/><path d="M66.88,25.76a.88.88,0,1,0-.88-.88A.87.87,0,0,0,66.88,25.76Z" fill="#003134"/><path d="M72.88,25.76a.88.88,0,1,0-.88-.88A.87.87,0,0,0,72.88,25.76Z" fill="#003134"/><path d="M78.88,25.76a.88.88,0,1,0-.88-.88A.87.87,0,0,0,78.88,25.76Z" fill="#003134"/><path d="M84.88,25.76a.88.88,0,1,0-.88-.88A.87.87,0,0,0,84.88,25.76Z" fill="#003134"/><path d="M90.88,25.76a.88.88,0,1,0-.88-.88A.87.87,0,0,0,90.88,25.76Z" fill="#003134"/><path d="M96.88,25.76a.88.88,0,1,0-.88-.88A.87.87,0,0,0,96.88,25.76Z" fill="#003134"/><path d="M102.88,25.76a.88.88,0,1,0-.88-.88A.87.87,0,0,0,102.88,25.76Z" fill="#003134"/><path d="M108.88,25.76a.88.88,0,1,0-.88-.88A.87.87,0,0,0,108.88,25.76Z" fill="#003134"/><path d="M114.88,25.76a.88.88,0,1,0-.88-.88A.87.87,0,0,0,114.88,25.76Z" fill="#003134"/><path d="M120.88,25.76a.88.88,0,1,0-.88-.88A.87.87,0,0,0,120.88,25.76Z" fill="#003134"/><path d="M126.88,25.76a.88.88,0,1,0-.88-.88A.87.87,0,0,0,126.88,25.76Z" fill="#003134"/><path d="M132.88,25.76a.88.88,0,1,0-.88-.88A.87.87,0,0,0,132.88,25.76Z" fill="#003134"/><path d="M138.88,25.76a.88.88,0,1,0-.88-.88A.87.87,0,0,0,138.88,25.76Z" fill="#003134"/><path d="M144.88,25.76a.88.88,0,1,0-.88-.88A.87.87,0,0,0,144.88,25.76Z" fill="#003134"/><path d="M150.88,25.76a.88.88,0,1,0-.88-.88A.87.87,0,0,0,150.88,25.76Z" fill="#003134"/><path d="M156.88,25.76a.88.88,0,1,0-.88-.88A.87.87,0,0,0,156.88,25.76Z" fill="#003134"/><path d="M162.88,25.76a.88.88,0,1,0-.88-.88A.87.87,0,0,0,162.88,25.76Z" fill="#003134"/><path d="M168.88,25.76a.88.88,0,1,0-.88-.88A.87.87,0,0,0,168.88,25.76Z" fill="#003134"/><path d="M.88,31.76A.88.88,0,0,0,.88,30a.88.88,0,0,0,0,1.76Z" fill="#003134"/><path d="M6.88,31.76A.88.88,0,1,0,6,30.88.87.87,0,0,0,6.88,31.76Z" fill="#003134"/><path d="M12.88,31.76a.88.88,0,1,0-.88-.88A.87.87,0,0,0,12.88,31.76Z" fill="#003134"/><path d="M18.88,31.76a.88.88,0,1,0-.88-.88A.87.87,0,0,0,18.88,31.76Z" fill="#003134"/><path d="M24.88,31.76a.88.88,0,1,0-.88-.88A.87.87,0,0,0,24.88,31.76Z" fill="#003134"/><path d="M30.88,31.76a.88.88,0,1,0-.88-.88A.87.87,0,0,0,30.88,31.76Z" fill="#003134"/><path d="M36.88,31.76a.88.88,0,1,0-.88-.88A.87.87,0,0,0,36.88,31.76Z" fill="#003134"/><path d="M42.88,31.76a.88.88,0,1,0-.88-.88A.87.87,0,0,0,42.88,31.76Z" fill="#003134"/><path d="M48.88,31.76a.88.88,0,1,0-.88-.88A.87.87,0,0,0,48.88,31.76Z" fill="#003134"/><path d="M54.88,31.76a.88.88,0,1,0-.88-.88A.87.87,0,0,0,54.88,31.76Z" fill="#003134"/><path d="M60.88,31.76a.88.88,0,1,0-.88-.88A.87.87,0,0,0,60.88,31.76Z" fill="#003134"/><path d="M66.88,31.76a.88.88,0,1,0-.88-.88A.87.87,0,0,0,66.88,31.76Z" fill="#003134"/><path d="M72.88,31.76a.88.88,0,1,0-.88-.88A.87.87,0,0,0,72.88,31.76Z" fill="#003134"/><path d="M78.88,31.76a.88.88,0,1,0-.88-.88A.87.87,0,0,0,78.88,31.76Z" fill="#003134"/><path d="M84.88,31.76a.88.88,0,1,0-.88-.88A.87.87,0,0,0,84.88,31.76Z" fill="#003134"/><path d="M90.88,31.76a.88.88,0,1,0-.88-.88A.87.87,0,0,0,90.88,31.76Z" fill="#003134"/><path d="M96.88,31.76a.88.88,0,1,0-.88-.88A.87.87,0,0,0,96.88,31.76Z" fill="#003134"/><path d="M102.88,31.76a.88.88,0,1,0-.88-.88A.87.87,0,0,0,102.88,31.76Z" fill="#003134"/><path d="M108.88,31.76a.88.88,0,1,0-.88-.88A.87.87,0,0,0,108.88,31.76Z" fill="#003134"/><path d="M114.88,31.76a.88.88,0,1,0-.88-.88A.87.87,0,0,0,114.88,31.76Z" fill="#003134"/><path d="M120.88,31.76a.88.88,0,1,0-.88-.88A.87.87,0,0,0,120.88,31.76Z" fill="#003134"/><path d="M126.88,31.76a.88.88,0,1,0-.88-.88A.87.87,0,0,0,126.88,31.76Z" fill="#003134"/><path d="M132.88,31.76a.88.88,0,1,0-.88-.88A.87.87,0,0,0,132.88,31.76Z" fill="#003134"/><path d="M138.88,31.76a.88.88,0,1,0-.88-.88A.87.87,0,0,0,138.88,31.76Z" fill="#003134"/><path d="M144.88,31.76a.88.88,0,1,0-.88-.88A.87.87,0,0,0,144.88,31.76Z" fill="#003134"/><path d="M150.88,31.76a.88.88,0,1,0-.88-.88A.87.87,0,0,0,150.88,31.76Z" fill="#003134"/><path d="M156.88,31.76a.88.88,0,1,0-.88-.88A.87.87,0,0,0,156.88,31.76Z" fill="#003134"/><path d="M162.88,31.76a.88.88,0,1,0-.88-.88A.87.87,0,0,0,162.88,31.76Z" fill="#003134"/><path d="M168.88,31.76a.88.88,0,1,0-.88-.88A.87.87,0,0,0,168.88,31.76Z" fill="#003134"/></g></g></g></g></svg>