<svg xmlns="http://www.w3.org/2000/svg" viewBox="0 0 117.12 117.02"><g id="Layer_2" data-name="Layer 2"><g id="Layer_1-2" data-name="Layer 1"><g opacity="0.65"><path d="M.33,1.77a.26.26,0,0,0,.26-.26.26.26,0,0,0-.26-.26.26.26,0,0,0-.26.26A.26.26,0,0,0,.33,1.77Z" fill="#003134"/><path d="M3.93,1.87a.36.36,0,1,0-.36-.36A.36.36,0,0,0,3.93,1.87Z" fill="#003134"/><circle cx="7.53" cy="1.51" r="0.4" fill="#003134"/><path d="M11.13,2a.44.44,0,0,0,.44-.44.44.44,0,0,0-.88,0A.44.44,0,0,0,11.13,2Z" fill="#003134"/><path d="M14.73,2a.49.49,0,0,0,.48-.48A.48.48,0,0,0,14.73,1a.47.47,0,0,0-.48.48A.48.48,0,0,0,14.73,2Z" fill="#003134"/><circle cx="18.33" cy="1.51" r="0.52" fill="#003134"/><path d="M21.93,2.07a.56.56,0,1,0-.56-.56A.56.56,0,0,0,21.93,2.07Z" fill="#003134"/><path d="M25.53,2.11a.6.6,0,1,0-.6-.6A.6.6,0,0,0,25.53,2.11Z" fill="#003134"/><circle cx="29.13" cy="1.51" r="0.63" fill="#003134"/><path d="M32.73,2.18a.67.67,0,1,0-.67-.67A.67.67,0,0,0,32.73,2.18Z" fill="#003134"/><path d="M36.33,2.22a.71.71,0,1,0-.71-.71A.71.71,0,0,0,36.33,2.22Z" fill="#003134"/><circle cx="39.93" cy="1.51" r="0.75" fill="#003134"/><path d="M43.53,2.3a.79.79,0,0,0,0-1.58.79.79,0,1,0,0,1.58Z" fill="#003134"/><path d="M47.13,2.34a.83.83,0,1,0-.83-.83A.83.83,0,0,0,47.13,2.34Z" fill="#003134"/><circle cx="50.73" cy="1.51" r="0.87" fill="#003134"/><path d="M54.33,2.42a.91.91,0,1,0-.91-.91A.91.91,0,0,0,54.33,2.42Z" fill="#003134"/><path d="M57.93,2.46a1,1,0,1,0-1-.95A1,1,0,0,0,57.93,2.46Z" fill="#003134"/><circle cx="61.53" cy="1.51" r="0.98" fill="#003134"/><path d="M65.13,2.53a1,1,0,1,0-1-1A1,1,0,0,0,65.13,2.53Z" fill="#003134"/><path d="M68.73,2.57a1.06,1.06,0,1,0-1.06-1.06A1.07,1.07,0,0,0,68.73,2.57Z" fill="#003134"/><circle cx="72.33" cy="1.51" r="1.1" fill="#003134"/><path d="M75.93,2.65a1.14,1.14,0,1,0-1.14-1.14A1.14,1.14,0,0,0,75.93,2.65Z" fill="#003134"/><path d="M79.53,2.69a1.18,1.18,0,1,0-1.18-1.18A1.18,1.18,0,0,0,79.53,2.69Z" fill="#003134"/><path d="M83.13,2.73a1.22,1.22,0,1,0-1.22-1.22A1.22,1.22,0,0,0,83.13,2.73Z" fill="#003134"/><path d="M86.73,2.76a1.25,1.25,0,1,0-1.25-1.25A1.25,1.25,0,0,0,86.73,2.76Z" fill="#003134"/><path d="M90.33,2.8A1.29,1.29,0,1,0,89,1.51,1.29,1.29,0,0,0,90.33,2.8Z" fill="#003134"/><circle cx="93.93" cy="1.51" r="1.33" fill="#003134"/><path d="M97.53,2.88a1.37,1.37,0,1,0-1.37-1.37A1.38,1.38,0,0,0,97.53,2.88Z" fill="#003134"/><path d="M101.13,2.91a1.41,1.41,0,1,0-1.41-1.4A1.41,1.41,0,0,0,101.13,2.91Z" fill="#003134"/><circle cx="104.73" cy="1.51" r="1.45" fill="#003134"/><path d="M108.33,3a1.48,1.48,0,1,0-1.48-1.47A1.47,1.47,0,0,0,108.33,3Z" fill="#003134"/><path d="M111.93,3a1.51,1.51,0,1,0-1.51-1.5A1.51,1.51,0,0,0,111.93,3Z" fill="#003134"/><path d="M115.53,2.79a1.28,1.28,0,1,0-1.28-1.28A1.28,1.28,0,0,0,115.53,2.79Z" fill="#003134"/><path d="M.33,5.44a.33.33,0,0,0,0-.66.33.33,0,0,0,0,.66Z" fill="#003134"/><path d="M3.93,5.56a.45.45,0,1,0-.45-.45A.45.45,0,0,0,3.93,5.56Z" fill="#003134"/><path d="M7.53,5.61a.5.5,0,0,0,.5-.5.5.5,0,0,0-1,0A.5.5,0,0,0,7.53,5.61Z" fill="#003134"/><path d="M11.13,5.66a.55.55,0,0,0,.55-.55.55.55,0,0,0-1.1,0A.55.55,0,0,0,11.13,5.66Z" fill="#003134"/><path d="M14.73,5.71a.6.6,0,1,0-.6-.6A.6.6,0,0,0,14.73,5.71Z" fill="#003134"/><path d="M18.33,5.76a.65.65,0,1,0-.65-.65A.65.65,0,0,0,18.33,5.76Z" fill="#003134"/><path d="M21.93,5.81a.7.7,0,1,0-.7-.7A.7.7,0,0,0,21.93,5.81Z" fill="#003134"/><path d="M25.53,5.85a.74.74,0,1,0-.74-.74A.74.74,0,0,0,25.53,5.85Z" fill="#003134"/><path d="M29.13,5.9a.79.79,0,1,0,0-1.58.79.79,0,1,0,0,1.58Z" fill="#003134"/><path d="M32.73,6a.84.84,0,1,0-.84-.84A.85.85,0,0,0,32.73,6Z" fill="#003134"/><path d="M36.33,6a.89.89,0,1,0-.89-.89A.89.89,0,0,0,36.33,6Z" fill="#003134"/><path d="M39.93,6.05A.94.94,0,1,0,39,5.11.94.94,0,0,0,39.93,6.05Z" fill="#003134"/><path d="M43.53,6.1a1,1,0,1,0-1-1A1,1,0,0,0,43.53,6.1Z" fill="#003134"/><circle cx="47.13" cy="5.11" r="1.04" fill="#003134"/><path d="M50.73,6.19a1.08,1.08,0,0,0,0-2.16,1.08,1.08,0,1,0,0,2.16Z" fill="#003134"/><path d="M54.33,6.24A1.13,1.13,0,1,0,53.2,5.11,1.14,1.14,0,0,0,54.33,6.24Z" fill="#003134"/><path d="M57.93,6.29a1.18,1.18,0,1,0-1.18-1.18A1.18,1.18,0,0,0,57.93,6.29Z" fill="#003134"/><path d="M61.53,6.34A1.23,1.23,0,1,0,60.3,5.11,1.23,1.23,0,0,0,61.53,6.34Z" fill="#003134"/><path d="M65.13,6.39a1.28,1.28,0,1,0-1.28-1.28A1.28,1.28,0,0,0,65.13,6.39Z" fill="#003134"/><path d="M68.73,6.43a1.32,1.32,0,1,0-1.32-1.32A1.32,1.32,0,0,0,68.73,6.43Z" fill="#003134"/><path d="M72.33,6.48A1.37,1.37,0,1,0,71,5.11,1.38,1.38,0,0,0,72.33,6.48Z" fill="#003134"/><path d="M75.93,6.52a1.42,1.42,0,1,0-1.42-1.41A1.42,1.42,0,0,0,75.93,6.52Z" fill="#003134"/><path d="M79.53,6.57a1.47,1.47,0,1,0-1.47-1.46A1.46,1.46,0,0,0,79.53,6.57Z" fill="#003134"/><path d="M83.13,6.62a1.52,1.52,0,1,0-1.52-1.51A1.51,1.51,0,0,0,83.13,6.62Z" fill="#003134"/><circle cx="86.73" cy="5.11" r="1.56" fill="#003134"/><path d="M90.33,6.71a1.61,1.61,0,1,0-1.61-1.6A1.61,1.61,0,0,0,90.33,6.71Z" fill="#003134"/><path d="M93.93,6.76a1.66,1.66,0,1,0-1.66-1.65A1.66,1.66,0,0,0,93.93,6.76Z" fill="#003134"/><path d="M97.53,6.81a1.71,1.71,0,1,0-1.71-1.7A1.71,1.71,0,0,0,97.53,6.81Z" fill="#003134"/><path d="M101.13,6.85a1.75,1.75,0,1,0-1.75-1.74A1.75,1.75,0,0,0,101.13,6.85Z" fill="#003134"/><path d="M104.73,6.9a1.8,1.8,0,1,0-1.8-1.79A1.8,1.8,0,0,0,104.73,6.9Z" fill="#003134"/><path d="M108.33,6.94a1.84,1.84,0,1,0-1.84-1.83A1.84,1.84,0,0,0,108.33,6.94Z" fill="#003134"/><circle cx="111.93" cy="5.11" r="1.85" fill="#003134"/><path d="M115.53,6.69a1.59,1.59,0,1,0-1.59-1.58A1.59,1.59,0,0,0,115.53,6.69Z" fill="#003134"/><path d="M.33,9a.32.32,0,0,0,.32-.32.32.32,0,0,0-.32-.32A.32.32,0,0,0,0,8.71.32.32,0,0,0,.33,9Z" fill="#003134"/><path d="M3.93,9.16a.45.45,0,1,0-.45-.45A.45.45,0,0,0,3.93,9.16Z" fill="#003134"/><path d="M7.53,9.21a.5.5,0,0,0,.5-.5.5.5,0,0,0-1,0A.5.5,0,0,0,7.53,9.21Z" fill="#003134"/><path d="M11.13,9.26a.55.55,0,0,0,.55-.55.55.55,0,0,0-1.1,0A.55.55,0,0,0,11.13,9.26Z" fill="#003134"/><path d="M14.73,9.3a.6.6,0,0,0,.59-.59.59.59,0,0,0-.59-.59.58.58,0,0,0-.59.59A.59.59,0,0,0,14.73,9.3Z" fill="#003134"/><circle cx="18.33" cy="8.71" r="0.64" fill="#003134"/><circle cx="21.93" cy="8.71" r="0.69" fill="#003134"/><path d="M25.53,9.45a.74.74,0,1,0-.74-.74A.74.74,0,0,0,25.53,9.45Z" fill="#003134"/><path d="M29.13,9.5a.79.79,0,1,0,0-1.58.79.79,0,0,0,0,1.58Z" fill="#003134"/><path d="M32.73,9.55a.84.84,0,1,0-.84-.84A.85.85,0,0,0,32.73,9.55Z" fill="#003134"/><path d="M36.33,9.6a.89.89,0,1,0-.89-.89A.89.89,0,0,0,36.33,9.6Z" fill="#003134"/><path d="M39.93,9.65A.94.94,0,1,0,39,8.71.94.94,0,0,0,39.93,9.65Z" fill="#003134"/><circle cx="43.53" cy="8.71" r="0.98" fill="#003134"/><path d="M47.13,9.74a1,1,0,1,0-1-1A1,1,0,0,0,47.13,9.74Z" fill="#003134"/><path d="M50.73,9.79a1.08,1.08,0,0,0,0-2.16,1.08,1.08,0,1,0,0,2.16Z" fill="#003134"/><path d="M54.33,9.84A1.13,1.13,0,1,0,53.2,8.71,1.14,1.14,0,0,0,54.33,9.84Z" fill="#003134"/><path d="M57.93,9.89a1.18,1.18,0,1,0-1.18-1.18A1.18,1.18,0,0,0,57.93,9.89Z" fill="#003134"/><path d="M61.53,9.93a1.22,1.22,0,1,0-1.22-1.22A1.22,1.22,0,0,0,61.53,9.93Z" fill="#003134"/><circle cx="65.13" cy="8.71" r="1.27" fill="#003134"/><path d="M68.73,10a1.32,1.32,0,1,0-1.32-1.32A1.32,1.32,0,0,0,68.73,10Z" fill="#003134"/><path d="M72.33,10.07A1.37,1.37,0,1,0,71,8.71,1.37,1.37,0,0,0,72.33,10.07Z" fill="#003134"/><path d="M75.93,10.11a1.41,1.41,0,1,0-1.41-1.4A1.41,1.41,0,0,0,75.93,10.11Z" fill="#003134"/><path d="M79.53,10.16a1.46,1.46,0,1,0-1.46-1.45A1.46,1.46,0,0,0,79.53,10.16Z" fill="#003134"/><path d="M83.13,10.21a1.51,1.51,0,1,0-1.51-1.5A1.51,1.51,0,0,0,83.13,10.21Z" fill="#003134"/><path d="M86.73,10.25a1.55,1.55,0,1,0-1.55-1.54A1.55,1.55,0,0,0,86.73,10.25Z" fill="#003134"/><path d="M90.33,10.3a1.6,1.6,0,1,0-1.6-1.59A1.6,1.6,0,0,0,90.33,10.3Z" fill="#003134"/><path d="M93.93,10.35a1.65,1.65,0,1,0-1.65-1.64A1.64,1.64,0,0,0,93.93,10.35Z" fill="#003134"/><path d="M97.53,10.39a1.69,1.69,0,1,0-1.69-1.68A1.69,1.69,0,0,0,97.53,10.39Z" fill="#003134"/><circle cx="101.13" cy="8.71" r="1.73" fill="#003134"/><path d="M104.73,10.47A1.77,1.77,0,1,0,103,8.71,1.76,1.76,0,0,0,104.73,10.47Z" fill="#003134"/><path d="M108.33,10.5a1.8,1.8,0,1,0-1.8-1.79A1.8,1.8,0,0,0,108.33,10.5Z" fill="#003134"/><path d="M111.93,10.51a1.81,1.81,0,1,0-1.81-1.8A1.8,1.8,0,0,0,111.93,10.51Z" fill="#003134"/><circle cx="115.53" cy="8.71" r="1.56" fill="#003134"/><path d="M.33,12.63a.32.32,0,0,0,.32-.32A.32.32,0,0,0,.33,12a.32.32,0,0,0-.32.32A.32.32,0,0,0,.33,12.63Z" fill="#003134"/><path d="M3.93,12.76a.45.45,0,1,0-.45-.45A.45.45,0,0,0,3.93,12.76Z" fill="#003134"/><path d="M7.53,12.8A.49.49,0,1,0,7,12.31.49.49,0,0,0,7.53,12.8Z" fill="#003134"/><path d="M11.13,12.85a.54.54,0,1,0-.54-.54A.54.54,0,0,0,11.13,12.85Z" fill="#003134"/><path d="M14.73,12.9a.6.6,0,0,0,.59-.59.59.59,0,0,0-.59-.59.58.58,0,0,0-.59.59A.59.59,0,0,0,14.73,12.9Z" fill="#003134"/><circle cx="18.33" cy="12.31" r="0.64" fill="#003134"/><circle cx="21.93" cy="12.31" r="0.69" fill="#003134"/><path d="M25.53,13.05a.74.74,0,1,0-.74-.74A.74.74,0,0,0,25.53,13.05Z" fill="#003134"/><path d="M29.13,13.09a.78.78,0,1,0-.78-.78A.78.78,0,0,0,29.13,13.09Z" fill="#003134"/><path d="M32.73,13.14a.83.83,0,1,0-.83-.83A.83.83,0,0,0,32.73,13.14Z" fill="#003134"/><path d="M36.33,13.19a.88.88,0,1,0,0-1.76.88.88,0,0,0,0,1.76Z" fill="#003134"/><circle cx="39.93" cy="12.31" r="0.93" fill="#003134"/><circle cx="43.53" cy="12.31" r="0.98" fill="#003134"/><path d="M47.13,13.34a1,1,0,1,0-1-1A1,1,0,0,0,47.13,13.34Z" fill="#003134"/><path d="M50.73,13.38a1.07,1.07,0,1,0-1.07-1.07A1.07,1.07,0,0,0,50.73,13.38Z" fill="#003134"/><path d="M54.33,13.43a1.12,1.12,0,1,0-1.12-1.12A1.12,1.12,0,0,0,54.33,13.43Z" fill="#003134"/><path d="M57.93,13.48a1.17,1.17,0,1,0,0-2.34,1.17,1.17,0,0,0,0,2.34Z" fill="#003134"/><path d="M61.53,13.53a1.22,1.22,0,1,0-1.22-1.22A1.22,1.22,0,0,0,61.53,13.53Z" fill="#003134"/><path d="M65.13,13.57a1.26,1.26,0,1,0,0-2.52,1.26,1.26,0,1,0,0,2.52Z" fill="#003134"/><path d="M68.73,13.62a1.31,1.31,0,1,0-1.31-1.31A1.31,1.31,0,0,0,68.73,13.62Z" fill="#003134"/><path d="M72.33,13.66A1.36,1.36,0,1,0,71,12.31,1.35,1.35,0,0,0,72.33,13.66Z" fill="#003134"/><path d="M75.93,13.7a1.4,1.4,0,1,0-1.4-1.39A1.4,1.4,0,0,0,75.93,13.7Z" fill="#003134"/><circle cx="79.53" cy="12.31" r="1.45" fill="#003134"/><path d="M83.13,13.79a1.49,1.49,0,1,0-1.49-1.48A1.49,1.49,0,0,0,83.13,13.79Z" fill="#003134"/><path d="M86.73,13.84a1.54,1.54,0,1,0-1.54-1.53A1.53,1.53,0,0,0,86.73,13.84Z" fill="#003134"/><path d="M90.33,13.88a1.58,1.58,0,1,0-1.58-1.57A1.57,1.57,0,0,0,90.33,13.88Z" fill="#003134"/><path d="M93.93,13.93a1.63,1.63,0,1,0-1.63-1.62A1.62,1.62,0,0,0,93.93,13.93Z" fill="#003134"/><circle cx="97.53" cy="12.31" r="1.67" fill="#003134"/><path d="M101.13,14a1.7,1.7,0,1,0-1.7-1.69A1.7,1.7,0,0,0,101.13,14Z" fill="#003134"/><circle cx="104.73" cy="12.31" r="1.73" fill="#003134"/><path d="M108.33,14.05a1.75,1.75,0,1,0-1.75-1.74A1.75,1.75,0,0,0,108.33,14.05Z" fill="#003134"/><path d="M111.93,14.06a1.76,1.76,0,1,0-1.76-1.75A1.75,1.75,0,0,0,111.93,14.06Z" fill="#003134"/><path d="M115.53,13.82A1.52,1.52,0,1,0,114,12.31,1.51,1.51,0,0,0,115.53,13.82Z" fill="#003134"/><path d="M.33,16.23a.32.32,0,0,0,.32-.32.32.32,0,0,0-.32-.32.32.32,0,0,0-.32.32A.32.32,0,0,0,.33,16.23Z" fill="#003134"/><path d="M3.93,16.35a.44.44,0,0,0,.44-.44.44.44,0,0,0-.88,0A.44.44,0,0,0,3.93,16.35Z" fill="#003134"/><path d="M7.53,16.4A.49.49,0,1,0,7,15.91.49.49,0,0,0,7.53,16.4Z" fill="#003134"/><path d="M11.13,16.45a.54.54,0,1,0-.54-.54A.54.54,0,0,0,11.13,16.45Z" fill="#003134"/><path d="M14.73,16.5a.6.6,0,0,0,.59-.59.59.59,0,0,0-.59-.59.58.58,0,0,0-.59.59A.59.59,0,0,0,14.73,16.5Z" fill="#003134"/><circle cx="18.33" cy="15.91" r="0.63" fill="#003134"/><path d="M21.93,16.59a.68.68,0,0,0,0-1.36.68.68,0,0,0,0,1.36Z" fill="#003134"/><path d="M25.53,16.64a.73.73,0,1,0-.73-.73A.73.73,0,0,0,25.53,16.64Z" fill="#003134"/><path d="M29.13,16.69a.78.78,0,1,0-.78-.78A.78.78,0,0,0,29.13,16.69Z" fill="#003134"/><path d="M32.73,16.74a.83.83,0,1,0-.83-.83A.83.83,0,0,0,32.73,16.74Z" fill="#003134"/><circle cx="36.33" cy="15.91" r="0.87" fill="#003134"/><circle cx="39.93" cy="15.91" r="0.92" fill="#003134"/><path d="M43.53,16.88a1,1,0,0,0,0-1.94,1,1,0,0,0,0,1.94Z" fill="#003134"/><path d="M47.13,16.93a1,1,0,1,0-1-1A1,1,0,0,0,47.13,16.93Z" fill="#003134"/><path d="M50.73,17a1.06,1.06,0,1,0-1.06-1.06A1.07,1.07,0,0,0,50.73,17Z" fill="#003134"/><path d="M54.33,17a1.11,1.11,0,1,0-1.11-1.11A1.11,1.11,0,0,0,54.33,17Z" fill="#003134"/><circle cx="57.93" cy="15.91" r="1.16" fill="#003134"/><path d="M61.53,17.11a1.2,1.2,0,1,0-1.2-1.2A1.2,1.2,0,0,0,61.53,17.11Z" fill="#003134"/><path d="M65.13,17.16a1.25,1.25,0,1,0-1.25-1.25A1.25,1.25,0,0,0,65.13,17.16Z" fill="#003134"/><path d="M68.73,17.2a1.29,1.29,0,1,0-1.29-1.29A1.29,1.29,0,0,0,68.73,17.2Z" fill="#003134"/><path d="M72.33,17.24A1.34,1.34,0,1,0,71,15.91,1.33,1.33,0,0,0,72.33,17.24Z" fill="#003134"/><circle cx="75.93" cy="15.91" r="1.39" fill="#003134"/><path d="M79.53,17.33a1.43,1.43,0,1,0-1.43-1.42A1.42,1.42,0,0,0,79.53,17.33Z" fill="#003134"/><path d="M83.13,17.37a1.47,1.47,0,1,0-1.47-1.46A1.46,1.46,0,0,0,83.13,17.37Z" fill="#003134"/><path d="M86.73,17.42a1.52,1.52,0,1,0-1.52-1.51A1.51,1.51,0,0,0,86.73,17.42Z" fill="#003134"/><circle cx="90.33" cy="15.91" r="1.56" fill="#003134"/><path d="M93.93,17.5a1.6,1.6,0,1,0-1.6-1.59A1.6,1.6,0,0,0,93.93,17.5Z" fill="#003134"/><path d="M97.53,17.53a1.63,1.63,0,1,0-1.63-1.62A1.62,1.62,0,0,0,97.53,17.53Z" fill="#003134"/><circle cx="101.13" cy="15.91" r="1.67" fill="#003134"/><path d="M104.73,17.59A1.69,1.69,0,1,0,103,15.91,1.69,1.69,0,0,0,104.73,17.59Z" fill="#003134"/><path d="M108.33,17.61a1.71,1.71,0,1,0-1.71-1.7A1.71,1.71,0,0,0,108.33,17.61Z" fill="#003134"/><path d="M111.93,17.61a1.71,1.71,0,1,0-1.71-1.7A1.71,1.71,0,0,0,111.93,17.61Z" fill="#003134"/><path d="M115.53,17.38a1.48,1.48,0,1,0-1.48-1.47A1.47,1.47,0,0,0,115.53,17.38Z" fill="#003134"/><path d="M.33,19.82A.31.31,0,1,0,0,19.51.31.31,0,0,0,.33,19.82Z" fill="#003134"/><path d="M3.93,19.94a.43.43,0,0,0,.43-.43.43.43,0,1,0-.86,0A.43.43,0,0,0,3.93,19.94Z" fill="#003134"/><path d="M7.53,20A.49.49,0,0,0,8,19.51.48.48,0,0,0,7.53,19a.47.47,0,0,0-.48.48A.48.48,0,0,0,7.53,20Z" fill="#003134"/><path d="M11.13,20a.53.53,0,1,0-.53-.53A.53.53,0,0,0,11.13,20Z" fill="#003134"/><circle cx="14.73" cy="19.51" r="0.58" fill="#003134"/><path d="M18.33,20.13a.62.62,0,1,0-.62-.62A.62.62,0,0,0,18.33,20.13Z" fill="#003134"/><path d="M21.93,20.18a.67.67,0,1,0-.67-.67A.67.67,0,0,0,21.93,20.18Z" fill="#003134"/><path d="M25.53,20.23a.72.72,0,1,0-.72-.72A.72.72,0,0,0,25.53,20.23Z" fill="#003134"/><path d="M29.13,20.28a.77.77,0,1,0,0-1.54.77.77,0,0,0,0,1.54Z" fill="#003134"/><path d="M32.73,20.33a.82.82,0,1,0-.82-.82A.82.82,0,0,0,32.73,20.33Z" fill="#003134"/><circle cx="36.33" cy="19.51" r="0.86" fill="#003134"/><path d="M39.93,20.42a.91.91,0,1,0-.91-.91A.91.91,0,0,0,39.93,20.42Z" fill="#003134"/><path d="M43.53,20.47a1,1,0,1,0-1-1A1,1,0,0,0,43.53,20.47Z" fill="#003134"/><path d="M47.13,20.52a1,1,0,1,0-1-1A1,1,0,0,0,47.13,20.52Z" fill="#003134"/><path d="M50.73,20.56a1.05,1.05,0,1,0-1-1A1,1,0,0,0,50.73,20.56Z" fill="#003134"/><circle cx="54.33" cy="19.51" r="1.1" fill="#003134"/><path d="M57.93,20.65a1.14,1.14,0,1,0-1.14-1.14A1.14,1.14,0,0,0,57.93,20.65Z" fill="#003134"/><path d="M61.53,20.7a1.19,1.19,0,1,0-1.19-1.19A1.19,1.19,0,0,0,61.53,20.7Z" fill="#003134"/><path d="M65.13,20.75a1.24,1.24,0,1,0-1.24-1.24A1.25,1.25,0,0,0,65.13,20.75Z" fill="#003134"/><path d="M68.73,20.79a1.28,1.28,0,1,0-1.28-1.28A1.28,1.28,0,0,0,68.73,20.79Z" fill="#003134"/><path d="M72.33,20.83A1.32,1.32,0,1,0,71,19.51,1.32,1.32,0,0,0,72.33,20.83Z" fill="#003134"/><path d="M75.93,20.88a1.37,1.37,0,1,0-1.37-1.37A1.38,1.38,0,0,0,75.93,20.88Z" fill="#003134"/><path d="M79.53,20.91a1.41,1.41,0,1,0-1.41-1.4A1.41,1.41,0,0,0,79.53,20.91Z" fill="#003134"/><circle cx="83.13" cy="19.51" r="1.45" fill="#003134"/><path d="M86.73,21a1.49,1.49,0,1,0-1.49-1.48A1.49,1.49,0,0,0,86.73,21Z" fill="#003134"/><path d="M90.33,21a1.53,1.53,0,1,0-1.53-1.52A1.53,1.53,0,0,0,90.33,21Z" fill="#003134"/><path d="M93.93,21.07a1.57,1.57,0,1,0-1.57-1.56A1.57,1.57,0,0,0,93.93,21.07Z" fill="#003134"/><path d="M97.53,21.1a1.6,1.6,0,1,0-1.6-1.59A1.6,1.6,0,0,0,97.53,21.1Z" fill="#003134"/><path d="M101.13,21.13a1.63,1.63,0,1,0-1.63-1.62A1.62,1.62,0,0,0,101.13,21.13Z" fill="#003134"/><path d="M104.73,21.15a1.65,1.65,0,1,0-1.65-1.64A1.64,1.64,0,0,0,104.73,21.15Z" fill="#003134"/><path d="M108.33,21.16a1.66,1.66,0,1,0-1.66-1.65A1.66,1.66,0,0,0,108.33,21.16Z" fill="#003134"/><path d="M111.93,21.16a1.66,1.66,0,1,0-1.66-1.65A1.66,1.66,0,0,0,111.93,21.16Z" fill="#003134"/><circle cx="115.53" cy="19.51" r="1.44" fill="#003134"/><path d="M.33,23.42A.31.31,0,1,0,0,23.11.31.31,0,0,0,.33,23.42Z" fill="#003134"/><path d="M3.93,23.53a.42.42,0,1,0-.42-.42A.42.42,0,0,0,3.93,23.53Z" fill="#003134"/><path d="M7.53,23.58a.47.47,0,1,0-.47-.47A.47.47,0,0,0,7.53,23.58Z" fill="#003134"/><circle cx="11.13" cy="23.11" r="0.52" fill="#003134"/><path d="M14.73,23.68a.58.58,0,0,0,.57-.57.57.57,0,0,0-1.14,0A.58.58,0,0,0,14.73,23.68Z" fill="#003134"/><path d="M18.33,23.73a.62.62,0,1,0-.62-.62A.62.62,0,0,0,18.33,23.73Z" fill="#003134"/><path d="M21.93,23.77a.66.66,0,1,0-.66-.66A.67.67,0,0,0,21.93,23.77Z" fill="#003134"/><path d="M25.53,23.82a.71.71,0,1,0-.71-.71A.71.71,0,0,0,25.53,23.82Z" fill="#003134"/><path d="M29.13,23.87a.76.76,0,1,0-.76-.76A.76.76,0,0,0,29.13,23.87Z" fill="#003134"/><path d="M32.73,23.91a.8.8,0,1,0-.8-.8A.8.8,0,0,0,32.73,23.91Z" fill="#003134"/><path d="M36.33,24a.85.85,0,1,0-.85-.85A.85.85,0,0,0,36.33,24Z" fill="#003134"/><path d="M39.93,24a.9.9,0,1,0-.9-.9A.9.9,0,0,0,39.93,24Z" fill="#003134"/><path d="M43.53,24.06a.95.95,0,1,0-1-.95A1,1,0,0,0,43.53,24.06Z" fill="#003134"/><path d="M47.13,24.1a1,1,0,1,0-1-1A1,1,0,0,0,47.13,24.1Z" fill="#003134"/><circle cx="50.73" cy="23.11" r="1.04" fill="#003134"/><path d="M54.33,24.19a1.08,1.08,0,1,0,0-2.16,1.08,1.08,0,1,0,0,2.16Z" fill="#003134"/><path d="M57.93,24.24a1.13,1.13,0,1,0-1.13-1.13A1.14,1.14,0,0,0,57.93,24.24Z" fill="#003134"/><path d="M61.53,24.28a1.17,1.17,0,1,0,0-2.34,1.17,1.17,0,0,0,0,2.34Z" fill="#003134"/><path d="M65.13,24.33a1.22,1.22,0,1,0-1.22-1.22A1.22,1.22,0,0,0,65.13,24.33Z" fill="#003134"/><path d="M68.73,24.37a1.26,1.26,0,0,0,0-2.52,1.26,1.26,0,0,0,0,2.52Z" fill="#003134"/><path d="M72.33,24.41a1.3,1.3,0,1,0-1.3-1.3A1.3,1.3,0,0,0,72.33,24.41Z" fill="#003134"/><path d="M75.93,24.44a1.34,1.34,0,1,0-1.34-1.33A1.33,1.33,0,0,0,75.93,24.44Z" fill="#003134"/><circle cx="79.53" cy="23.11" r="1.39" fill="#003134"/><path d="M83.13,24.53a1.43,1.43,0,1,0-1.43-1.42A1.42,1.42,0,0,0,83.13,24.53Z" fill="#003134"/><path d="M86.73,24.56a1.46,1.46,0,1,0-1.46-1.45A1.46,1.46,0,0,0,86.73,24.56Z" fill="#003134"/><circle cx="90.33" cy="23.11" r="1.5" fill="#003134"/><path d="M93.93,24.63a1.53,1.53,0,1,0-1.53-1.52A1.53,1.53,0,0,0,93.93,24.63Z" fill="#003134"/><circle cx="97.53" cy="23.11" r="1.56" fill="#003134"/><path d="M101.13,24.68a1.58,1.58,0,1,0-1.58-1.57A1.57,1.57,0,0,0,101.13,24.68Z" fill="#003134"/><path d="M104.73,24.7a1.6,1.6,0,1,0-1.6-1.59A1.6,1.6,0,0,0,104.73,24.7Z" fill="#003134"/><path d="M108.33,24.71a1.61,1.61,0,1,0-1.61-1.6A1.61,1.61,0,0,0,108.33,24.71Z" fill="#003134"/><circle cx="111.93" cy="23.11" r="1.62" fill="#003134"/><path d="M115.53,24.5a1.4,1.4,0,1,0-1.4-1.39A1.4,1.4,0,0,0,115.53,24.5Z" fill="#003134"/><path d="M.33,27a.31.31,0,0,0,.3-.3.3.3,0,0,0-.3-.3.29.29,0,0,0-.3.3A.3.3,0,0,0,.33,27Z" fill="#003134"/><circle cx="3.93" cy="26.71" r="0.41" fill="#003134"/><circle cx="7.53" cy="26.71" r="0.46" fill="#003134"/><path d="M11.13,27.22a.51.51,0,1,0-.51-.51A.51.51,0,0,0,11.13,27.22Z" fill="#003134"/><path d="M14.73,27.27a.56.56,0,1,0-.56-.56A.56.56,0,0,0,14.73,27.27Z" fill="#003134"/><path d="M18.33,27.31a.6.6,0,1,0-.6-.6A.6.6,0,0,0,18.33,27.31Z" fill="#003134"/><path d="M21.93,27.36a.65.65,0,1,0-.65-.65A.65.65,0,0,0,21.93,27.36Z" fill="#003134"/><path d="M25.53,27.41a.7.7,0,1,0-.7-.7A.7.7,0,0,0,25.53,27.41Z" fill="#003134"/><path d="M29.13,27.45a.74.74,0,1,0-.74-.74A.74.74,0,0,0,29.13,27.45Z" fill="#003134"/><path d="M32.73,27.5a.79.79,0,1,0,0-1.58.79.79,0,0,0,0,1.58Z" fill="#003134"/><path d="M36.33,27.55a.84.84,0,1,0-.84-.84A.85.85,0,0,0,36.33,27.55Z" fill="#003134"/><path d="M39.93,27.59a.88.88,0,1,0,0-1.76.88.88,0,0,0,0,1.76Z" fill="#003134"/><circle cx="43.53" cy="26.71" r="0.93" fill="#003134"/><circle cx="47.13" cy="26.71" r="0.98" fill="#003134"/><path d="M50.73,27.73a1,1,0,1,0-1-1A1,1,0,0,0,50.73,27.73Z" fill="#003134"/><path d="M54.33,27.77a1.06,1.06,0,0,0,0-2.12,1.06,1.06,0,1,0,0,2.12Z" fill="#003134"/><path d="M57.93,27.82a1.11,1.11,0,1,0-1.11-1.11A1.11,1.11,0,0,0,57.93,27.82Z" fill="#003134"/><circle cx="61.53" cy="26.71" r="1.15" fill="#003134"/><path d="M65.13,27.91a1.2,1.2,0,1,0-1.2-1.2A1.2,1.2,0,0,0,65.13,27.91Z" fill="#003134"/><path d="M68.73,28a1.24,1.24,0,1,0-1.24-1.24A1.25,1.25,0,0,0,68.73,28Z" fill="#003134"/><path d="M72.33,28a1.28,1.28,0,1,0-1.28-1.28A1.28,1.28,0,0,0,72.33,28Z" fill="#003134"/><path d="M75.93,28a1.32,1.32,0,1,0-1.32-1.32A1.32,1.32,0,0,0,75.93,28Z" fill="#003134"/><path d="M79.53,28.07a1.36,1.36,0,1,0-1.36-1.36A1.36,1.36,0,0,0,79.53,28.07Z" fill="#003134"/><circle cx="83.13" cy="26.71" r="1.39" fill="#003134"/><path d="M86.73,28.13a1.43,1.43,0,1,0-1.43-1.42A1.42,1.42,0,0,0,86.73,28.13Z" fill="#003134"/><path d="M90.33,28.16a1.46,1.46,0,1,0-1.46-1.45A1.46,1.46,0,0,0,90.33,28.16Z" fill="#003134"/><path d="M93.93,28.19a1.49,1.49,0,1,0-1.49-1.48A1.49,1.49,0,0,0,93.93,28.19Z" fill="#003134"/><path d="M97.53,28.22A1.52,1.52,0,1,0,96,26.71,1.51,1.51,0,0,0,97.53,28.22Z" fill="#003134"/><path d="M101.13,28.24a1.54,1.54,0,1,0-1.54-1.53A1.53,1.53,0,0,0,101.13,28.24Z" fill="#003134"/><circle cx="104.73" cy="26.71" r="1.56" fill="#003134"/><circle cx="108.33" cy="26.71" r="1.56" fill="#003134"/><path d="M111.93,28.27a1.57,1.57,0,1,0-1.57-1.56A1.57,1.57,0,0,0,111.93,28.27Z" fill="#003134"/><path d="M115.53,28.07a1.36,1.36,0,1,0-1.36-1.36A1.36,1.36,0,0,0,115.53,28.07Z" fill="#003134"/><circle cx="0.33" cy="30.31" r="0.29" fill="#003134"/><circle cx="3.93" cy="30.31" r="0.4" fill="#003134"/><path d="M7.53,30.76a.45.45,0,1,0-.45-.45A.45.45,0,0,0,7.53,30.76Z" fill="#003134"/><path d="M11.13,30.81a.5.5,0,0,0,.5-.5.5.5,0,0,0-1,0A.5.5,0,0,0,11.13,30.81Z" fill="#003134"/><path d="M14.73,30.85a.54.54,0,1,0-.54-.54A.54.54,0,0,0,14.73,30.85Z" fill="#003134"/><path d="M18.33,30.9a.6.6,0,0,0,.59-.59.59.59,0,0,0-.59-.59.58.58,0,0,0-.59.59A.59.59,0,0,0,18.33,30.9Z" fill="#003134"/><circle cx="21.93" cy="30.31" r="0.64" fill="#003134"/><path d="M25.53,31a.68.68,0,0,0,0-1.36.68.68,0,0,0,0,1.36Z" fill="#003134"/><path d="M29.13,31a.73.73,0,1,0-.73-.73A.73.73,0,0,0,29.13,31Z" fill="#003134"/><path d="M32.73,31.08a.77.77,0,0,0,0-1.54.77.77,0,0,0,0,1.54Z" fill="#003134"/><path d="M36.33,31.13a.82.82,0,1,0-.82-.82A.82.82,0,0,0,36.33,31.13Z" fill="#003134"/><circle cx="39.93" cy="30.31" r="0.87" fill="#003134"/><path d="M43.53,31.22a.91.91,0,1,0-.91-.91A.91.91,0,0,0,43.53,31.22Z" fill="#003134"/><path d="M47.13,31.27a1,1,0,1,0-1-1A1,1,0,0,0,47.13,31.27Z" fill="#003134"/><path d="M50.73,31.31a1,1,0,1,0-1-1A1,1,0,0,0,50.73,31.31Z" fill="#003134"/><circle cx="54.33" cy="30.31" r="1.04" fill="#003134"/><path d="M57.93,31.4a1.09,1.09,0,1,0-1.09-1.09A1.09,1.09,0,0,0,57.93,31.4Z" fill="#003134"/><path d="M61.53,31.44a1.13,1.13,0,1,0-1.13-1.13A1.14,1.14,0,0,0,61.53,31.44Z" fill="#003134"/><path d="M65.13,31.48a1.17,1.17,0,1,0,0-2.34,1.17,1.17,0,1,0,0,2.34Z" fill="#003134"/><circle cx="68.73" cy="30.31" r="1.21" fill="#003134"/><path d="M72.33,31.56a1.25,1.25,0,1,0-1.25-1.25A1.25,1.25,0,0,0,72.33,31.56Z" fill="#003134"/><path d="M75.93,31.6a1.29,1.29,0,1,0-1.29-1.29A1.29,1.29,0,0,0,75.93,31.6Z" fill="#003134"/><circle cx="79.53" cy="30.31" r="1.33" fill="#003134"/><path d="M83.13,31.66a1.36,1.36,0,1,0-1.36-1.35A1.35,1.35,0,0,0,83.13,31.66Z" fill="#003134"/><path d="M86.73,31.7a1.4,1.4,0,1,0-1.4-1.39A1.4,1.4,0,0,0,86.73,31.7Z" fill="#003134"/><path d="M90.33,31.73a1.43,1.43,0,1,0-1.43-1.42A1.42,1.42,0,0,0,90.33,31.73Z" fill="#003134"/><circle cx="93.93" cy="30.31" r="1.45" fill="#003134"/><path d="M97.53,31.78a1.48,1.48,0,1,0-1.48-1.47A1.47,1.47,0,0,0,97.53,31.78Z" fill="#003134"/><path d="M101.13,31.79a1.49,1.49,0,1,0-1.49-1.48A1.49,1.49,0,0,0,101.13,31.79Z" fill="#003134"/><path d="M104.73,31.81a1.51,1.51,0,1,0-1.51-1.5A1.51,1.51,0,0,0,104.73,31.81Z" fill="#003134"/><path d="M108.33,31.82a1.52,1.52,0,1,0-1.52-1.51A1.51,1.51,0,0,0,108.33,31.82Z" fill="#003134"/><path d="M111.93,31.82a1.52,1.52,0,1,0-1.52-1.51A1.51,1.51,0,0,0,111.93,31.82Z" fill="#003134"/><path d="M115.53,31.62a1.31,1.31,0,1,0-1.31-1.31A1.31,1.31,0,0,0,115.53,31.62Z" fill="#003134"/><path d="M.33,34.19a.29.29,0,0,0,.28-.28.28.28,0,0,0-.28-.28.27.27,0,0,0-.28.28A.28.28,0,0,0,.33,34.19Z" fill="#003134"/><path d="M3.93,34.3a.4.4,0,0,0,.39-.39.39.39,0,0,0-.39-.39.38.38,0,0,0-.39.39A.39.39,0,0,0,3.93,34.3Z" fill="#003134"/><path d="M7.53,34.35A.44.44,0,0,0,8,33.91a.44.44,0,1,0-.88,0A.44.44,0,0,0,7.53,34.35Z" fill="#003134"/><path d="M11.13,34.39a.49.49,0,0,0,.48-.48.48.48,0,0,0-.48-.48.47.47,0,0,0-.48.48A.48.48,0,0,0,11.13,34.39Z" fill="#003134"/><path d="M14.73,34.44a.53.53,0,1,0-.53-.53A.53.53,0,0,0,14.73,34.44Z" fill="#003134"/><circle cx="18.33" cy="33.91" r="0.58" fill="#003134"/><path d="M21.93,34.53a.62.62,0,1,0-.62-.62A.62.62,0,0,0,21.93,34.53Z" fill="#003134"/><path d="M25.53,34.58a.67.67,0,1,0-.67-.67A.67.67,0,0,0,25.53,34.58Z" fill="#003134"/><path d="M29.13,34.62a.71.71,0,1,0-.71-.71A.71.71,0,0,0,29.13,34.62Z" fill="#003134"/><path d="M32.73,34.67a.76.76,0,1,0-.76-.76A.76.76,0,0,0,32.73,34.67Z" fill="#003134"/><path d="M36.33,34.71a.8.8,0,1,0-.8-.8A.8.8,0,0,0,36.33,34.71Z" fill="#003134"/><path d="M39.93,34.76a.85.85,0,1,0-.85-.85A.85.85,0,0,0,39.93,34.76Z" fill="#003134"/><path d="M43.53,34.8a.89.89,0,1,0-.89-.89A.89.89,0,0,0,43.53,34.8Z" fill="#003134"/><path d="M47.13,34.85a.94.94,0,1,0-.94-.94A.94.94,0,0,0,47.13,34.85Z" fill="#003134"/><circle cx="50.73" cy="33.91" r="0.98" fill="#003134"/><path d="M54.33,34.93a1,1,0,1,0-1-1A1,1,0,0,0,54.33,34.93Z" fill="#003134"/><path d="M57.93,35a1.06,1.06,0,1,0,0-2.12,1.06,1.06,0,1,0,0,2.12Z" fill="#003134"/><circle cx="61.53" cy="33.91" r="1.1" fill="#003134"/><circle cx="65.13" cy="33.91" r="1.15" fill="#003134"/><path d="M68.73,35.09a1.18,1.18,0,1,0-1.18-1.18A1.18,1.18,0,0,0,68.73,35.09Z" fill="#003134"/><path d="M72.33,35.13a1.22,1.22,0,1,0-1.22-1.22A1.22,1.22,0,0,0,72.33,35.13Z" fill="#003134"/><path d="M75.93,35.17a1.26,1.26,0,0,0,0-2.52,1.26,1.26,0,1,0,0,2.52Z" fill="#003134"/><path d="M79.53,35.2a1.29,1.29,0,1,0-1.29-1.29A1.29,1.29,0,0,0,79.53,35.2Z" fill="#003134"/><circle cx="83.13" cy="33.91" r="1.33" fill="#003134"/><path d="M86.73,35.27a1.36,1.36,0,1,0-1.36-1.36A1.36,1.36,0,0,0,86.73,35.27Z" fill="#003134"/><circle cx="90.33" cy="33.91" r="1.39" fill="#003134"/><path d="M93.93,35.31a1.41,1.41,0,1,0-1.41-1.4A1.41,1.41,0,0,0,93.93,35.31Z" fill="#003134"/><path d="M97.53,35.33a1.43,1.43,0,1,0-1.43-1.42A1.42,1.42,0,0,0,97.53,35.33Z" fill="#003134"/><circle cx="101.13" cy="33.91" r="1.45" fill="#003134"/><path d="M104.73,35.36a1.46,1.46,0,1,0-1.46-1.45A1.46,1.46,0,0,0,104.73,35.36Z" fill="#003134"/><path d="M108.33,35.37a1.47,1.47,0,1,0-1.47-1.46A1.46,1.46,0,0,0,108.33,35.37Z" fill="#003134"/><path d="M111.93,35.37a1.47,1.47,0,1,0-1.47-1.46A1.46,1.46,0,0,0,111.93,35.37Z" fill="#003134"/><circle cx="115.53" cy="33.91" r="1.27" fill="#003134"/><path d="M.33,37.78a.27.27,0,1,0-.27-.27A.27.27,0,0,0,.33,37.78Z" fill="#003134"/><path d="M3.93,37.88a.38.38,0,0,0,.37-.37.37.37,0,0,0-.74,0A.38.38,0,0,0,3.93,37.88Z" fill="#003134"/><path d="M7.53,37.93a.42.42,0,1,0-.42-.42A.42.42,0,0,0,7.53,37.93Z" fill="#003134"/><path d="M11.13,38a.47.47,0,1,0-.47-.47A.47.47,0,0,0,11.13,38Z" fill="#003134"/><path d="M14.73,38a.51.51,0,1,0-.51-.51A.51.51,0,0,0,14.73,38Z" fill="#003134"/><path d="M18.33,38.07a.56.56,0,1,0-.56-.56A.56.56,0,0,0,18.33,38.07Z" fill="#003134"/><path d="M21.93,38.11a.6.6,0,1,0-.6-.6A.6.6,0,0,0,21.93,38.11Z" fill="#003134"/><path d="M25.53,38.16a.65.65,0,1,0-.65-.65A.65.65,0,0,0,25.53,38.16Z" fill="#003134"/><circle cx="29.13" cy="37.51" r="0.69" fill="#003134"/><path d="M32.73,38.25a.74.74,0,1,0-.74-.74A.74.74,0,0,0,32.73,38.25Z" fill="#003134"/><path d="M36.33,38.29a.78.78,0,1,0-.78-.78A.78.78,0,0,0,36.33,38.29Z" fill="#003134"/><path d="M39.93,38.34a.83.83,0,1,0-.83-.83A.83.83,0,0,0,39.93,38.34Z" fill="#003134"/><circle cx="43.53" cy="37.51" r="0.87" fill="#003134"/><path d="M47.13,38.42a.91.91,0,1,0-.91-.91A.91.91,0,0,0,47.13,38.42Z" fill="#003134"/><path d="M50.73,38.47a1,1,0,1,0-1-1A1,1,0,0,0,50.73,38.47Z" fill="#003134"/><path d="M54.33,38.51a1,1,0,1,0-1-1A1,1,0,0,0,54.33,38.51Z" fill="#003134"/><circle cx="57.93" cy="37.51" r="1.04" fill="#003134"/><path d="M61.53,38.59a1.08,1.08,0,1,0,0-2.16,1.08,1.08,0,1,0,0,2.16Z" fill="#003134"/><path d="M65.13,38.63A1.12,1.12,0,1,0,64,37.51,1.12,1.12,0,0,0,65.13,38.63Z" fill="#003134"/><circle cx="68.73" cy="37.51" r="1.15" fill="#003134"/><path d="M72.33,38.7a1.19,1.19,0,1,0-1.19-1.19A1.19,1.19,0,0,0,72.33,38.7Z" fill="#003134"/><path d="M75.93,38.74a1.23,1.23,0,1,0-1.23-1.23A1.23,1.23,0,0,0,75.93,38.74Z" fill="#003134"/><path d="M79.53,38.77a1.26,1.26,0,1,0,0-2.52,1.26,1.26,0,1,0,0,2.52Z" fill="#003134"/><path d="M83.13,38.8a1.29,1.29,0,1,0-1.29-1.29A1.29,1.29,0,0,0,83.13,38.8Z" fill="#003134"/><path d="M86.73,38.83a1.32,1.32,0,1,0-1.32-1.32A1.32,1.32,0,0,0,86.73,38.83Z" fill="#003134"/><path d="M90.33,38.86A1.35,1.35,0,1,0,89,37.51,1.36,1.36,0,0,0,90.33,38.86Z" fill="#003134"/><path d="M93.93,38.88a1.37,1.37,0,1,0-1.37-1.37A1.38,1.38,0,0,0,93.93,38.88Z" fill="#003134"/><circle cx="97.53" cy="37.51" r="1.39" fill="#003134"/><path d="M101.13,38.9a1.4,1.4,0,1,0-1.4-1.39A1.4,1.4,0,0,0,101.13,38.9Z" fill="#003134"/><path d="M104.73,38.91a1.41,1.41,0,1,0-1.41-1.4A1.41,1.41,0,0,0,104.73,38.91Z" fill="#003134"/><path d="M108.33,38.92a1.42,1.42,0,1,0-1.42-1.41A1.42,1.42,0,0,0,108.33,38.92Z" fill="#003134"/><path d="M111.93,38.92a1.42,1.42,0,1,0-1.42-1.41A1.42,1.42,0,0,0,111.93,38.92Z" fill="#003134"/><path d="M115.53,38.74a1.23,1.23,0,1,0-1.23-1.23A1.23,1.23,0,0,0,115.53,38.74Z" fill="#003134"/><path d="M.33,41.36a.25.25,0,0,0,0-.5.25.25,0,1,0,0,.5Z" fill="#003134"/><path d="M3.93,41.47a.36.36,0,1,0-.36-.36A.36.36,0,0,0,3.93,41.47Z" fill="#003134"/><circle cx="7.53" cy="41.11" r="0.4" fill="#003134"/><path d="M11.13,41.56a.45.45,0,1,0-.45-.45A.45.45,0,0,0,11.13,41.56Z" fill="#003134"/><path d="M14.73,41.61a.5.5,0,0,0,.5-.5.5.5,0,0,0-1,0A.5.5,0,0,0,14.73,41.61Z" fill="#003134"/><path d="M18.33,41.65a.54.54,0,1,0-.54-.54A.54.54,0,0,0,18.33,41.65Z" fill="#003134"/><path d="M21.93,41.7a.6.6,0,0,0,.59-.59.59.59,0,0,0-.59-.59.58.58,0,0,0-.59.59A.59.59,0,0,0,21.93,41.7Z" fill="#003134"/><circle cx="25.53" cy="41.11" r="0.63" fill="#003134"/><path d="M29.13,41.78a.67.67,0,1,0-.67-.67A.67.67,0,0,0,29.13,41.78Z" fill="#003134"/><path d="M32.73,41.83a.72.72,0,1,0-.72-.72A.72.72,0,0,0,32.73,41.83Z" fill="#003134"/><path d="M36.33,41.87a.76.76,0,1,0-.76-.76A.76.76,0,0,0,36.33,41.87Z" fill="#003134"/><path d="M39.93,41.91a.8.8,0,1,0-.8-.8A.8.8,0,0,0,39.93,41.91Z" fill="#003134"/><path d="M43.53,42a.85.85,0,1,0-.85-.85A.85.85,0,0,0,43.53,42Z" fill="#003134"/><path d="M47.13,42a.89.89,0,1,0-.89-.89A.89.89,0,0,0,47.13,42Z" fill="#003134"/><circle cx="50.73" cy="41.11" r="0.93" fill="#003134"/><path d="M54.33,42.08a1,1,0,0,0,0-1.94,1,1,0,0,0,0,1.94Z" fill="#003134"/><path d="M57.93,42.12a1,1,0,1,0-1-1A1,1,0,0,0,57.93,42.12Z" fill="#003134"/><path d="M61.53,42.16a1,1,0,1,0-1.05-1A1,1,0,0,0,61.53,42.16Z" fill="#003134"/><path d="M65.13,42.2A1.09,1.09,0,1,0,64,41.11,1.09,1.09,0,0,0,65.13,42.2Z" fill="#003134"/><path d="M68.73,42.23a1.12,1.12,0,1,0-1.12-1.12A1.12,1.12,0,0,0,68.73,42.23Z" fill="#003134"/><circle cx="72.33" cy="41.11" r="1.16" fill="#003134"/><path d="M75.93,42.3a1.19,1.19,0,1,0-1.19-1.19A1.19,1.19,0,0,0,75.93,42.3Z" fill="#003134"/><path d="M79.53,42.33a1.22,1.22,0,1,0-1.22-1.22A1.22,1.22,0,0,0,79.53,42.33Z" fill="#003134"/><path d="M83.13,42.36a1.25,1.25,0,1,0-1.25-1.25A1.25,1.25,0,0,0,83.13,42.36Z" fill="#003134"/><path d="M86.73,42.39a1.28,1.28,0,1,0-1.28-1.28A1.28,1.28,0,0,0,86.73,42.39Z" fill="#003134"/><path d="M90.33,42.41a1.3,1.3,0,1,0-1.3-1.3A1.3,1.3,0,0,0,90.33,42.41Z" fill="#003134"/><path d="M93.93,42.43a1.32,1.32,0,1,0-1.32-1.32A1.32,1.32,0,0,0,93.93,42.43Z" fill="#003134"/><path d="M97.53,42.44a1.34,1.34,0,1,0-1.34-1.33A1.33,1.33,0,0,0,97.53,42.44Z" fill="#003134"/><path d="M101.13,42.47a1.36,1.36,0,1,0-1.36-1.36A1.36,1.36,0,0,0,101.13,42.47Z" fill="#003134"/><path d="M104.73,42.48a1.37,1.37,0,1,0-1.37-1.37A1.38,1.38,0,0,0,104.73,42.48Z" fill="#003134"/><path d="M108.33,42.48A1.37,1.37,0,1,0,107,41.11,1.38,1.38,0,0,0,108.33,42.48Z" fill="#003134"/><path d="M111.93,42.48a1.37,1.37,0,1,0-1.37-1.37A1.38,1.38,0,0,0,111.93,42.48Z" fill="#003134"/><path d="M115.53,42.3a1.19,1.19,0,1,0-1.19-1.19A1.19,1.19,0,0,0,115.53,42.3Z" fill="#003134"/><path d="M.33,45a.24.24,0,0,0,.24-.24.24.24,0,0,0-.24-.24.24.24,0,0,0-.24.24A.24.24,0,0,0,.33,45Z" fill="#003134"/><circle cx="3.93" cy="44.71" r="0.34" fill="#003134"/><path d="M7.53,45.1a.4.4,0,0,0,.39-.39.39.39,0,0,0-.39-.39.38.38,0,0,0-.39.39A.39.39,0,0,0,7.53,45.1Z" fill="#003134"/><path d="M11.13,45.14a.43.43,0,0,0,.43-.43.43.43,0,0,0-.86,0A.43.43,0,0,0,11.13,45.14Z" fill="#003134"/><path d="M14.73,45.19a.49.49,0,0,0,.48-.48.48.48,0,0,0-.48-.48.47.47,0,0,0-.48.48A.48.48,0,0,0,14.73,45.19Z" fill="#003134"/><circle cx="18.33" cy="44.71" r="0.52" fill="#003134"/><path d="M21.93,45.27a.56.56,0,1,0-.56-.56A.56.56,0,0,0,21.93,45.27Z" fill="#003134"/><path d="M25.53,45.32a.61.61,0,0,0,.61-.61.61.61,0,0,0-1.22,0A.61.61,0,0,0,25.53,45.32Z" fill="#003134"/><path d="M29.13,45.36a.65.65,0,1,0-.65-.65A.65.65,0,0,0,29.13,45.36Z" fill="#003134"/><path d="M32.73,45.41a.7.7,0,1,0-.7-.7A.7.7,0,0,0,32.73,45.41Z" fill="#003134"/><path d="M36.33,45.45a.74.74,0,1,0-.74-.74A.74.74,0,0,0,36.33,45.45Z" fill="#003134"/><path d="M39.93,45.49a.78.78,0,1,0-.78-.78A.78.78,0,0,0,39.93,45.49Z" fill="#003134"/><path d="M43.53,45.53a.82.82,0,1,0-.82-.82A.82.82,0,0,0,43.53,45.53Z" fill="#003134"/><circle cx="47.13" cy="44.71" r="0.86" fill="#003134"/><path d="M50.73,45.61a.9.9,0,1,0-.9-.9A.9.9,0,0,0,50.73,45.61Z" fill="#003134"/><path d="M54.33,45.65a.94.94,0,1,0-.94-.94A.94.94,0,0,0,54.33,45.65Z" fill="#003134"/><circle cx="57.93" cy="44.71" r="0.98" fill="#003134"/><path d="M61.53,45.73a1,1,0,1,0-1-1A1,1,0,0,0,61.53,45.73Z" fill="#003134"/><path d="M65.13,45.77a1.06,1.06,0,0,0,0-2.12,1.06,1.06,0,0,0,0,2.12Z" fill="#003134"/><path d="M68.73,45.8a1.09,1.09,0,1,0-1.09-1.09A1.09,1.09,0,0,0,68.73,45.8Z" fill="#003134"/><path d="M72.33,45.83a1.12,1.12,0,1,0-1.12-1.12A1.12,1.12,0,0,0,72.33,45.83Z" fill="#003134"/><circle cx="75.93" cy="44.71" r="1.15" fill="#003134"/><path d="M79.53,45.89a1.18,1.18,0,1,0-1.18-1.18A1.18,1.18,0,0,0,79.53,45.89Z" fill="#003134"/><circle cx="83.13" cy="44.71" r="1.21" fill="#003134"/><path d="M86.73,46a1.24,1.24,0,1,0-1.24-1.24A1.25,1.25,0,0,0,86.73,46Z" fill="#003134"/><path d="M90.33,46a1.26,1.26,0,1,0,0-2.52,1.26,1.26,0,0,0,0,2.52Z" fill="#003134"/><path d="M93.93,46a1.28,1.28,0,1,0-1.28-1.28A1.28,1.28,0,0,0,93.93,46Z" fill="#003134"/><path d="M97.53,46a1.3,1.3,0,1,0-1.3-1.3A1.3,1.3,0,0,0,97.53,46Z" fill="#003134"/><path d="M101.13,46a1.31,1.31,0,1,0-1.31-1.31A1.31,1.31,0,0,0,101.13,46Z" fill="#003134"/><path d="M104.73,46a1.32,1.32,0,1,0-1.32-1.32A1.32,1.32,0,0,0,104.73,46Z" fill="#003134"/><circle cx="108.33" cy="44.71" r="1.33" fill="#003134"/><circle cx="111.93" cy="44.71" r="1.33" fill="#003134"/><circle cx="115.53" cy="44.71" r="1.15" fill="#003134"/><circle cx="0.33" cy="48.31" r="0.23" fill="#003134"/><path d="M3.93,48.63a.32.32,0,0,0,.32-.32.32.32,0,0,0-.64,0A.32.32,0,0,0,3.93,48.63Z" fill="#003134"/><path d="M7.53,48.68a.38.38,0,0,0,.37-.37.37.37,0,1,0-.74,0A.38.38,0,0,0,7.53,48.68Z" fill="#003134"/><circle cx="11.13" cy="48.31" r="0.41" fill="#003134"/><circle cx="14.73" cy="48.31" r="0.46" fill="#003134"/><path d="M18.33,48.81a.5.5,0,0,0,.5-.5.5.5,0,0,0-1,0A.5.5,0,0,0,18.33,48.81Z" fill="#003134"/><path d="M21.93,48.85a.54.54,0,1,0-.54-.54A.54.54,0,0,0,21.93,48.85Z" fill="#003134"/><path d="M25.53,48.9a.6.6,0,0,0,.59-.59.59.59,0,0,0-.59-.59.58.58,0,0,0-.59.59A.59.59,0,0,0,25.53,48.9Z" fill="#003134"/><circle cx="29.13" cy="48.31" r="0.63" fill="#003134"/><path d="M32.73,49a.67.67,0,1,0-.67-.67A.67.67,0,0,0,32.73,49Z" fill="#003134"/><path d="M36.33,49a.71.71,0,1,0-.71-.71A.71.71,0,0,0,36.33,49Z" fill="#003134"/><circle cx="39.93" cy="48.31" r="0.75" fill="#003134"/><path d="M43.53,49.11a.8.8,0,1,0-.8-.8A.8.8,0,0,0,43.53,49.11Z" fill="#003134"/><path d="M47.13,49.15a.84.84,0,1,0-.84-.84A.85.85,0,0,0,47.13,49.15Z" fill="#003134"/><circle cx="50.73" cy="48.31" r="0.87" fill="#003134"/><path d="M54.33,49.22a.91.91,0,1,0-.91-.91A.91.91,0,0,0,54.33,49.22Z" fill="#003134"/><path d="M57.93,49.26a.95.95,0,1,0-1-.95A1,1,0,0,0,57.93,49.26Z" fill="#003134"/><path d="M61.53,49.3a1,1,0,1,0-1-1A1,1,0,0,0,61.53,49.3Z" fill="#003134"/><path d="M65.13,49.33a1,1,0,1,0-1-1A1,1,0,0,0,65.13,49.33Z" fill="#003134"/><path d="M68.73,49.37a1.06,1.06,0,1,0-1.06-1.06A1.07,1.07,0,0,0,68.73,49.37Z" fill="#003134"/><path d="M72.33,49.39a1.08,1.08,0,0,0,0-2.16,1.08,1.08,0,0,0,0,2.16Z" fill="#003134"/><path d="M75.93,49.43a1.12,1.12,0,1,0-1.12-1.12A1.12,1.12,0,0,0,75.93,49.43Z" fill="#003134"/><path d="M79.53,49.45a1.14,1.14,0,1,0-1.14-1.14A1.14,1.14,0,0,0,79.53,49.45Z" fill="#003134"/><path d="M83.13,49.48a1.17,1.17,0,0,0,0-2.34,1.17,1.17,0,0,0,0,2.34Z" fill="#003134"/><path d="M86.73,49.51a1.2,1.2,0,1,0-1.2-1.2A1.2,1.2,0,0,0,86.73,49.51Z" fill="#003134"/><path d="M90.33,49.53a1.22,1.22,0,1,0-1.22-1.22A1.22,1.22,0,0,0,90.33,49.53Z" fill="#003134"/><path d="M93.93,49.55a1.24,1.24,0,1,0-1.24-1.24A1.25,1.25,0,0,0,93.93,49.55Z" fill="#003134"/><path d="M97.53,49.56a1.25,1.25,0,1,0-1.25-1.25A1.25,1.25,0,0,0,97.53,49.56Z" fill="#003134"/><path d="M101.13,49.57a1.26,1.26,0,0,0,0-2.52,1.26,1.26,0,1,0,0,2.52Z" fill="#003134"/><circle cx="104.73" cy="48.31" r="1.27" fill="#003134"/><path d="M108.33,49.59a1.28,1.28,0,1,0-1.28-1.28A1.28,1.28,0,0,0,108.33,49.59Z" fill="#003134"/><path d="M111.93,49.59a1.28,1.28,0,1,0-1.28-1.28A1.28,1.28,0,0,0,111.93,49.59Z" fill="#003134"/><path d="M115.53,49.42a1.11,1.11,0,1,0-1.11-1.11A1.11,1.11,0,0,0,115.53,49.42Z" fill="#003134"/><path d="M.33,52.12a.21.21,0,0,0,.21-.21.21.21,0,0,0-.21-.21.21.21,0,0,0-.21.21A.21.21,0,0,0,.33,52.12Z" fill="#003134"/><path d="M3.93,52.21a.31.31,0,0,0,.3-.3.3.3,0,0,0-.3-.3.29.29,0,0,0-.3.3A.3.3,0,0,0,3.93,52.21Z" fill="#003134"/><circle cx="7.53" cy="51.91" r="0.35" fill="#003134"/><path d="M11.13,52.3a.4.4,0,0,0,.39-.39.39.39,0,0,0-.39-.39.38.38,0,0,0-.39.39A.39.39,0,0,0,11.13,52.3Z" fill="#003134"/><path d="M14.73,52.34a.43.43,0,0,0,.43-.43.43.43,0,1,0-.86,0A.43.43,0,0,0,14.73,52.34Z" fill="#003134"/><path d="M18.33,52.39a.49.49,0,0,0,.48-.48.48.48,0,0,0-.48-.48.47.47,0,0,0-.48.48A.48.48,0,0,0,18.33,52.39Z" fill="#003134"/><circle cx="21.93" cy="51.91" r="0.52" fill="#003134"/><path d="M25.53,52.47a.56.56,0,1,0-.56-.56A.56.56,0,0,0,25.53,52.47Z" fill="#003134"/><path d="M29.13,52.51a.6.6,0,1,0-.6-.6A.6.6,0,0,0,29.13,52.51Z" fill="#003134"/><path d="M32.73,52.56a.65.65,0,1,0-.65-.65A.65.65,0,0,0,32.73,52.56Z" fill="#003134"/><circle cx="36.33" cy="51.91" r="0.69" fill="#003134"/><path d="M39.93,52.64a.73.73,0,1,0-.73-.73A.73.73,0,0,0,39.93,52.64Z" fill="#003134"/><path d="M43.53,52.68a.77.77,0,0,0,0-1.54.77.77,0,0,0,0,1.54Z" fill="#003134"/><circle cx="47.13" cy="51.91" r="0.81" fill="#003134"/><path d="M50.73,52.75a.84.84,0,1,0-.84-.84A.85.85,0,0,0,50.73,52.75Z" fill="#003134"/><path d="M54.33,52.79a.88.88,0,0,0,0-1.76.88.88,0,0,0,0,1.76Z" fill="#003134"/><circle cx="57.93" cy="51.91" r="0.92" fill="#003134"/><path d="M61.53,52.86a1,1,0,1,0-1-1A1,1,0,0,0,61.53,52.86Z" fill="#003134"/><path d="M65.13,52.9a1,1,0,1,0-1-1A1,1,0,0,0,65.13,52.9Z" fill="#003134"/><path d="M68.73,52.93a1,1,0,1,0-1-1A1,1,0,0,0,68.73,52.93Z" fill="#003134"/><path d="M72.33,53a1.05,1.05,0,1,0-1-1.05A1,1,0,0,0,72.33,53Z" fill="#003134"/><path d="M75.93,53a1.08,1.08,0,1,0,0-2.16,1.08,1.08,0,0,0,0,2.16Z" fill="#003134"/><circle cx="79.53" cy="51.91" r="1.1" fill="#003134"/><path d="M83.13,53A1.13,1.13,0,1,0,82,51.91,1.14,1.14,0,0,0,83.13,53Z" fill="#003134"/><circle cx="86.73" cy="51.91" r="1.15" fill="#003134"/><path d="M90.33,53.08a1.17,1.17,0,1,0,0-2.34,1.17,1.17,0,1,0,0,2.34Z" fill="#003134"/><path d="M93.93,53.1a1.19,1.19,0,1,0-1.19-1.19A1.19,1.19,0,0,0,93.93,53.1Z" fill="#003134"/><circle cx="97.53" cy="51.91" r="1.21" fill="#003134"/><path d="M101.13,53.13a1.22,1.22,0,1,0-1.22-1.22A1.22,1.22,0,0,0,101.13,53.13Z" fill="#003134"/><path d="M104.73,53.13a1.22,1.22,0,1,0-1.22-1.22A1.22,1.22,0,0,0,104.73,53.13Z" fill="#003134"/><path d="M108.33,53.14a1.23,1.23,0,1,0-1.23-1.23A1.23,1.23,0,0,0,108.33,53.14Z" fill="#003134"/><path d="M111.93,53.14a1.23,1.23,0,1,0-1.23-1.23A1.23,1.23,0,0,0,111.93,53.14Z" fill="#003134"/><path d="M115.53,53a1.07,1.07,0,1,0-1.07-1.07A1.07,1.07,0,0,0,115.53,53Z" fill="#003134"/><path d="M.33,55.7a.2.2,0,0,0,.19-.19.19.19,0,0,0-.19-.19.18.18,0,0,0-.19.19A.19.19,0,0,0,.33,55.7Z" fill="#003134"/><path d="M3.93,55.79a.29.29,0,0,0,.28-.28.28.28,0,0,0-.28-.28.27.27,0,0,0-.28.28A.28.28,0,0,0,3.93,55.79Z" fill="#003134"/><path d="M7.53,55.83a.32.32,0,0,0,.32-.32.32.32,0,1,0-.64,0A.32.32,0,0,0,7.53,55.83Z" fill="#003134"/><path d="M11.13,55.88a.38.38,0,0,0,.37-.37.37.37,0,0,0-.74,0A.38.38,0,0,0,11.13,55.88Z" fill="#003134"/><circle cx="14.73" cy="55.51" r="0.41" fill="#003134"/><path d="M18.33,56a.45.45,0,1,0-.45-.45A.45.45,0,0,0,18.33,56Z" fill="#003134"/><path d="M21.93,56a.5.5,0,0,0,.5-.5.5.5,0,0,0-1,0A.5.5,0,0,0,21.93,56Z" fill="#003134"/><path d="M25.53,56.05a.54.54,0,1,0-.54-.54A.54.54,0,0,0,25.53,56.05Z" fill="#003134"/><circle cx="29.13" cy="55.51" r="0.58" fill="#003134"/><path d="M32.73,56.13a.62.62,0,1,0-.62-.62A.62.62,0,0,0,32.73,56.13Z" fill="#003134"/><path d="M36.33,56.17a.66.66,0,1,0-.66-.66A.67.67,0,0,0,36.33,56.17Z" fill="#003134"/><path d="M39.93,56.21a.7.7,0,1,0-.7-.7A.7.7,0,0,0,39.93,56.21Z" fill="#003134"/><path d="M43.53,56.25a.74.74,0,1,0-.74-.74A.74.74,0,0,0,43.53,56.25Z" fill="#003134"/><path d="M47.13,56.29a.78.78,0,1,0-.78-.78A.78.78,0,0,0,47.13,56.29Z" fill="#003134"/><circle cx="50.73" cy="55.51" r="0.81" fill="#003134"/><path d="M54.33,56.36a.85.85,0,1,0-.85-.85A.85.85,0,0,0,54.33,56.36Z" fill="#003134"/><path d="M57.93,56.39a.88.88,0,0,0,0-1.76.88.88,0,1,0,0,1.76Z" fill="#003134"/><circle cx="61.53" cy="55.51" r="0.92" fill="#003134"/><path d="M65.13,56.46a.95.95,0,1,0-.95-1A1,1,0,0,0,65.13,56.46Z" fill="#003134"/><circle cx="68.73" cy="55.51" r="0.98" fill="#003134"/><path d="M72.33,56.52a1,1,0,1,0-1-1A1,1,0,0,0,72.33,56.52Z" fill="#003134"/><circle cx="75.93" cy="55.51" r="1.04" fill="#003134"/><path d="M79.53,56.57a1.06,1.06,0,1,0,0-2.12,1.06,1.06,0,1,0,0,2.12Z" fill="#003134"/><path d="M83.13,56.6A1.09,1.09,0,1,0,82,55.51,1.09,1.09,0,0,0,83.13,56.6Z" fill="#003134"/><path d="M86.73,56.62a1.11,1.11,0,1,0-1.11-1.11A1.11,1.11,0,0,0,86.73,56.62Z" fill="#003134"/><path d="M90.33,56.64a1.13,1.13,0,1,0-1.13-1.13A1.14,1.14,0,0,0,90.33,56.64Z" fill="#003134"/><path d="M93.93,56.65a1.14,1.14,0,1,0-1.14-1.14A1.14,1.14,0,0,0,93.93,56.65Z" fill="#003134"/><circle cx="97.53" cy="55.51" r="1.16" fill="#003134"/><path d="M101.13,56.68a1.17,1.17,0,1,0,0-2.34,1.17,1.17,0,1,0,0,2.34Z" fill="#003134"/><path d="M104.73,56.69a1.18,1.18,0,1,0-1.18-1.18A1.18,1.18,0,0,0,104.73,56.69Z" fill="#003134"/><path d="M108.33,56.69a1.18,1.18,0,1,0-1.18-1.18A1.18,1.18,0,0,0,108.33,56.69Z" fill="#003134"/><path d="M111.93,56.69a1.18,1.18,0,1,0-1.18-1.18A1.18,1.18,0,0,0,111.93,56.69Z" fill="#003134"/><path d="M115.53,56.53a1,1,0,1,0-1-1A1,1,0,0,0,115.53,56.53Z" fill="#003134"/><path d="M.33,59.29a.18.18,0,1,0-.18-.18A.18.18,0,0,0,.33,59.29Z" fill="#003134"/><path d="M3.93,59.37a.26.26,0,0,0,.26-.26.26.26,0,0,0-.52,0A.26.26,0,0,0,3.93,59.37Z" fill="#003134"/><path d="M7.53,59.41a.31.31,0,0,0,.3-.3.3.3,0,0,0-.3-.3.29.29,0,0,0-.3.3A.3.3,0,0,0,7.53,59.41Z" fill="#003134"/><circle cx="11.13" cy="59.11" r="0.34" fill="#003134"/><path d="M14.73,59.5a.4.4,0,0,0,.39-.39.39.39,0,0,0-.39-.39.38.38,0,0,0-.39.39A.39.39,0,0,0,14.73,59.5Z" fill="#003134"/><path d="M18.33,59.54a.43.43,0,0,0,.43-.43.43.43,0,1,0-.86,0A.43.43,0,0,0,18.33,59.54Z" fill="#003134"/><path d="M21.93,59.58a.47.47,0,1,0-.47-.47A.47.47,0,0,0,21.93,59.58Z" fill="#003134"/><path d="M25.53,59.62a.51.51,0,1,0-.51-.51A.51.51,0,0,0,25.53,59.62Z" fill="#003134"/><path d="M29.13,59.66a.55.55,0,0,0,.55-.55.55.55,0,0,0-1.1,0A.55.55,0,0,0,29.13,59.66Z" fill="#003134"/><path d="M32.73,59.7a.6.6,0,0,0,.59-.59.59.59,0,0,0-.59-.59.58.58,0,0,0-.59.59A.59.59,0,0,0,32.73,59.7Z" fill="#003134"/><circle cx="36.33" cy="59.11" r="0.63" fill="#003134"/><path d="M39.93,59.78a.67.67,0,1,0-.67-.67A.67.67,0,0,0,39.93,59.78Z" fill="#003134"/><path d="M43.53,59.82a.71.71,0,1,0-.71-.71A.71.71,0,0,0,43.53,59.82Z" fill="#003134"/><path d="M47.13,59.85a.74.74,0,1,0-.74-.74A.74.74,0,0,0,47.13,59.85Z" fill="#003134"/><path d="M50.73,59.89a.78.78,0,1,0-.78-.78A.78.78,0,0,0,50.73,59.89Z" fill="#003134"/><circle cx="54.33" cy="59.11" r="0.81" fill="#003134"/><path d="M57.93,60a.85.85,0,1,0-.85-.85A.85.85,0,0,0,57.93,60Z" fill="#003134"/><path d="M61.53,60a.88.88,0,1,0,0-1.76.88.88,0,0,0,0,1.76Z" fill="#003134"/><path d="M65.13,60a.91.91,0,1,0-.91-.91A.91.91,0,0,0,65.13,60Z" fill="#003134"/><path d="M68.73,60.05a.94.94,0,1,0-.94-.94A.94.94,0,0,0,68.73,60.05Z" fill="#003134"/><path d="M72.33,60.08a1,1,0,0,0,0-1.94,1,1,0,0,0,0,1.94Z" fill="#003134"/><path d="M75.93,60.11a1,1,0,1,0-1-1A1,1,0,0,0,75.93,60.11Z" fill="#003134"/><path d="M79.53,60.13a1,1,0,1,0-1-1A1,1,0,0,0,79.53,60.13Z" fill="#003134"/><path d="M83.13,60.16a1,1,0,1,0-1-1A1,1,0,0,0,83.13,60.16Z" fill="#003134"/><path d="M86.73,60.18a1.07,1.07,0,1,0-1.07-1.07A1.07,1.07,0,0,0,86.73,60.18Z" fill="#003134"/><path d="M90.33,60.19a1.08,1.08,0,0,0,0-2.16,1.08,1.08,0,0,0,0,2.16Z" fill="#003134"/><circle cx="93.93" cy="59.11" r="1.1" fill="#003134"/><path d="M97.53,60.22a1.11,1.11,0,1,0-1.11-1.11A1.11,1.11,0,0,0,97.53,60.22Z" fill="#003134"/><path d="M101.13,60.23A1.12,1.12,0,1,0,100,59.11,1.12,1.12,0,0,0,101.13,60.23Z" fill="#003134"/><path d="M104.73,60.24a1.13,1.13,0,1,0-1.13-1.13A1.14,1.14,0,0,0,104.73,60.24Z" fill="#003134"/><path d="M108.33,60.24a1.13,1.13,0,1,0-1.13-1.13A1.14,1.14,0,0,0,108.33,60.24Z" fill="#003134"/><path d="M111.93,60.24a1.13,1.13,0,1,0-1.13-1.13A1.14,1.14,0,0,0,111.93,60.24Z" fill="#003134"/><circle cx="115.53" cy="59.11" r="0.98" fill="#003134"/><path d="M.33,62.87a.16.16,0,0,0,0-.32.16.16,0,0,0,0,.32Z" fill="#003134"/><path d="M3.93,63a.24.24,0,1,0-.24-.24A.24.24,0,0,0,3.93,63Z" fill="#003134"/><path d="M7.53,63a.29.29,0,0,0,.28-.28.28.28,0,1,0-.56,0A.29.29,0,0,0,7.53,63Z" fill="#003134"/><path d="M11.13,63a.32.32,0,0,0,.32-.32.32.32,0,1,0-.64,0A.32.32,0,0,0,11.13,63Z" fill="#003134"/><path d="M14.73,63.07a.36.36,0,1,0-.36-.36A.36.36,0,0,0,14.73,63.07Z" fill="#003134"/><circle cx="18.33" cy="62.71" r="0.4" fill="#003134"/><path d="M21.93,63.15a.44.44,0,0,0,.44-.44.44.44,0,1,0-.88,0A.44.44,0,0,0,21.93,63.15Z" fill="#003134"/><path d="M25.53,63.19a.49.49,0,0,0,.48-.48.48.48,0,0,0-.48-.48.47.47,0,0,0-.48.48A.48.48,0,0,0,25.53,63.19Z" fill="#003134"/><circle cx="29.13" cy="62.71" r="0.52" fill="#003134"/><path d="M32.73,63.27a.56.56,0,1,0-.56-.56A.56.56,0,0,0,32.73,63.27Z" fill="#003134"/><path d="M36.33,63.31a.6.6,0,1,0-.6-.6A.6.6,0,0,0,36.33,63.31Z" fill="#003134"/><circle cx="39.93" cy="62.71" r="0.64" fill="#003134"/><path d="M43.53,63.38a.67.67,0,1,0-.67-.67A.67.67,0,0,0,43.53,63.38Z" fill="#003134"/><path d="M47.13,63.42a.71.71,0,1,0-.71-.71A.71.71,0,0,0,47.13,63.42Z" fill="#003134"/><circle cx="50.73" cy="62.71" r="0.75" fill="#003134"/><path d="M54.33,63.49a.78.78,0,1,0-.78-.78A.78.78,0,0,0,54.33,63.49Z" fill="#003134"/><circle cx="57.93" cy="62.71" r="0.81" fill="#003134"/><path d="M61.53,63.55a.84.84,0,1,0-.84-.84A.85.85,0,0,0,61.53,63.55Z" fill="#003134"/><circle cx="65.13" cy="62.71" r="0.87" fill="#003134"/><path d="M68.73,63.61a.9.9,0,1,0-.9-.9A.9.9,0,0,0,68.73,63.61Z" fill="#003134"/><circle cx="72.33" cy="62.71" r="0.93" fill="#003134"/><path d="M75.93,63.67a1,1,0,1,0-1-1A1,1,0,0,0,75.93,63.67Z" fill="#003134"/><circle cx="79.53" cy="62.71" r="0.98" fill="#003134"/><path d="M83.13,63.71a1,1,0,1,0-1-1A1,1,0,0,0,83.13,63.71Z" fill="#003134"/><path d="M86.73,63.73a1,1,0,1,0-1-1A1,1,0,0,0,86.73,63.73Z" fill="#003134"/><circle cx="90.33" cy="62.71" r="1.04" fill="#003134"/><path d="M93.93,63.76a1.05,1.05,0,1,0-1.05-1A1,1,0,0,0,93.93,63.76Z" fill="#003134"/><path d="M97.53,63.77a1.06,1.06,0,0,0,0-2.12,1.06,1.06,0,0,0,0,2.12Z" fill="#003134"/><path d="M101.13,63.78a1.07,1.07,0,1,0-1.07-1.07A1.07,1.07,0,0,0,101.13,63.78Z" fill="#003134"/><path d="M104.73,63.79a1.08,1.08,0,0,0,0-2.16,1.08,1.08,0,1,0,0,2.16Z" fill="#003134"/><path d="M108.33,63.8a1.09,1.09,0,1,0-1.09-1.09A1.09,1.09,0,0,0,108.33,63.8Z" fill="#003134"/><path d="M111.93,63.8a1.09,1.09,0,1,0-1.09-1.09A1.09,1.09,0,0,0,111.93,63.8Z" fill="#003134"/><path d="M115.53,63.65a.94.94,0,1,0-.94-.94A.94.94,0,0,0,115.53,63.65Z" fill="#003134"/><path d="M.33,66.45a.14.14,0,0,0,.14-.14.14.14,0,0,0-.14-.14.14.14,0,0,0-.14.14A.14.14,0,0,0,.33,66.45Z" fill="#003134"/><path d="M3.93,66.52a.21.21,0,0,0,.21-.21.21.21,0,0,0-.42,0A.21.21,0,0,0,3.93,66.52Z" fill="#003134"/><path d="M7.53,66.56a.25.25,0,1,0-.25-.25A.25.25,0,0,0,7.53,66.56Z" fill="#003134"/><circle cx="11.13" cy="66.31" r="0.29" fill="#003134"/><circle cx="14.73" cy="66.31" r="0.34" fill="#003134"/><path d="M18.33,66.69a.38.38,0,1,0-.38-.38A.38.38,0,0,0,18.33,66.69Z" fill="#003134"/><path d="M21.93,66.73a.42.42,0,1,0-.42-.42A.42.42,0,0,0,21.93,66.73Z" fill="#003134"/><path d="M25.53,66.76a.45.45,0,1,0-.45-.45A.45.45,0,0,0,25.53,66.76Z" fill="#003134"/><path d="M29.13,66.8a.49.49,0,1,0-.49-.49A.49.49,0,0,0,29.13,66.8Z" fill="#003134"/><path d="M32.73,66.84a.53.53,0,1,0-.53-.53A.53.53,0,0,0,32.73,66.84Z" fill="#003134"/><path d="M36.33,66.88a.58.58,0,0,0,.57-.57.57.57,0,1,0-1.14,0A.58.58,0,0,0,36.33,66.88Z" fill="#003134"/><path d="M39.93,66.92a.61.61,0,0,0,.61-.61.61.61,0,0,0-1.22,0A.61.61,0,0,0,39.93,66.92Z" fill="#003134"/><circle cx="43.53" cy="66.31" r="0.64" fill="#003134"/><path d="M47.13,67a.68.68,0,1,0,0-1.36.68.68,0,1,0,0,1.36Z" fill="#003134"/><path d="M50.73,67a.71.71,0,1,0-.71-.71A.71.71,0,0,0,50.73,67Z" fill="#003134"/><path d="M54.33,67.05a.74.74,0,1,0-.74-.74A.74.74,0,0,0,54.33,67.05Z" fill="#003134"/><path d="M57.93,67.09a.78.78,0,1,0-.78-.78A.78.78,0,0,0,57.93,67.09Z" fill="#003134"/><circle cx="61.53" cy="66.31" r="0.81" fill="#003134"/><path d="M65.13,67.14a.83.83,0,1,0-.83-.83A.83.83,0,0,0,65.13,67.14Z" fill="#003134"/><circle cx="68.73" cy="66.31" r="0.86" fill="#003134"/><path d="M72.33,67.2a.89.89,0,1,0-.89-.89A.89.89,0,0,0,72.33,67.2Z" fill="#003134"/><path d="M75.93,67.22a.91.91,0,1,0-.91-.91A.91.91,0,0,0,75.93,67.22Z" fill="#003134"/><path d="M79.53,67.25a.94.94,0,1,0-.94-.94A.94.94,0,0,0,79.53,67.25Z" fill="#003134"/><path d="M83.13,67.27a1,1,0,1,0-1-1A1,1,0,0,0,83.13,67.27Z" fill="#003134"/><circle cx="86.73" cy="66.31" r="0.98" fill="#003134"/><path d="M90.33,67.3a1,1,0,1,0-1-1A1,1,0,0,0,90.33,67.3Z" fill="#003134"/><path d="M93.93,67.32a1,1,0,1,0-1-1A1,1,0,0,0,93.93,67.32Z" fill="#003134"/><path d="M97.53,67.33a1,1,0,1,0-1-1A1,1,0,0,0,97.53,67.33Z" fill="#003134"/><path d="M101.13,67.34a1,1,0,1,0-1-1A1,1,0,0,0,101.13,67.34Z" fill="#003134"/><path d="M104.73,67.34a1,1,0,1,0-1-1A1,1,0,0,0,104.73,67.34Z" fill="#003134"/><circle cx="108.33" cy="66.31" r="1.04" fill="#003134"/><circle cx="111.93" cy="66.31" r="1.04" fill="#003134"/><path d="M115.53,67.21a.9.9,0,1,0-.9-.9A.9.9,0,0,0,115.53,67.21Z" fill="#003134"/><circle cx="0.33" cy="69.91" r="0.12" fill="#003134"/><path d="M3.93,70.1a.2.2,0,0,0,.19-.19.19.19,0,0,0-.19-.19.18.18,0,0,0-.19.19A.19.19,0,0,0,3.93,70.1Z" fill="#003134"/><circle cx="7.53" cy="69.91" r="0.23" fill="#003134"/><path d="M11.13,70.18a.27.27,0,1,0-.27-.27A.27.27,0,0,0,11.13,70.18Z" fill="#003134"/><path d="M14.73,70.22a.31.31,0,1,0-.31-.31A.31.31,0,0,0,14.73,70.22Z" fill="#003134"/><circle cx="18.33" cy="69.91" r="0.35" fill="#003134"/><path d="M21.93,70.3a.4.4,0,0,0,.39-.39.39.39,0,0,0-.39-.39.38.38,0,0,0-.39.39A.39.39,0,0,0,21.93,70.3Z" fill="#003134"/><path d="M25.53,70.33a.42.42,0,1,0-.42-.42A.42.42,0,0,0,25.53,70.33Z" fill="#003134"/><circle cx="29.13" cy="69.91" r="0.46" fill="#003134"/><path d="M32.73,70.41a.5.5,0,0,0,.5-.5.5.5,0,0,0-1,0A.5.5,0,0,0,32.73,70.41Z" fill="#003134"/><path d="M36.33,70.45a.54.54,0,1,0-.54-.54A.54.54,0,0,0,36.33,70.45Z" fill="#003134"/><path d="M39.93,70.48a.58.58,0,0,0,.57-.57.57.57,0,0,0-1.14,0A.58.58,0,0,0,39.93,70.48Z" fill="#003134"/><path d="M43.53,70.52a.61.61,0,0,0,.61-.61.61.61,0,0,0-1.22,0A.61.61,0,0,0,43.53,70.52Z" fill="#003134"/><circle cx="47.13" cy="69.91" r="0.64" fill="#003134"/><path d="M50.73,70.58a.67.67,0,1,0-.67-.67A.67.67,0,0,0,50.73,70.58Z" fill="#003134"/><path d="M54.33,70.62a.71.71,0,1,0-.71-.71A.71.71,0,0,0,54.33,70.62Z" fill="#003134"/><path d="M57.93,70.65a.74.74,0,1,0-.74-.74A.74.74,0,0,0,57.93,70.65Z" fill="#003134"/><path d="M61.53,70.68a.77.77,0,0,0,0-1.54.77.77,0,1,0,0,1.54Z" fill="#003134"/><path d="M65.13,70.71a.8.8,0,1,0-.8-.8A.8.8,0,0,0,65.13,70.71Z" fill="#003134"/><path d="M68.73,70.73a.82.82,0,1,0-.82-.82A.82.82,0,0,0,68.73,70.73Z" fill="#003134"/><path d="M72.33,70.76a.85.85,0,1,0-.85-.85A.85.85,0,0,0,72.33,70.76Z" fill="#003134"/><circle cx="75.93" cy="69.91" r="0.87" fill="#003134"/><path d="M79.53,70.8a.89.89,0,1,0-.89-.89A.89.89,0,0,0,79.53,70.8Z" fill="#003134"/><path d="M83.13,70.82a.91.91,0,1,0-.91-.91A.91.91,0,0,0,83.13,70.82Z" fill="#003134"/><circle cx="86.73" cy="69.91" r="0.93" fill="#003134"/><path d="M90.33,70.86a1,1,0,1,0-1-1A1,1,0,0,0,90.33,70.86Z" fill="#003134"/><path d="M93.93,70.87a1,1,0,1,0-1-1A1,1,0,0,0,93.93,70.87Z" fill="#003134"/><path d="M97.53,70.88a1,1,0,0,0,0-1.94,1,1,0,0,0,0,1.94Z" fill="#003134"/><circle cx="101.13" cy="69.91" r="0.98" fill="#003134"/><path d="M104.73,70.9a1,1,0,1,0-1-1A1,1,0,0,0,104.73,70.9Z" fill="#003134"/><path d="M108.33,70.9a1,1,0,1,0-1-1A1,1,0,0,0,108.33,70.9Z" fill="#003134"/><path d="M111.93,70.9a1,1,0,1,0-1-1A1,1,0,0,0,111.93,70.9Z" fill="#003134"/><circle cx="115.53" cy="69.91" r="0.86" fill="#003134"/><path d="M.33,73.61a.11.11,0,0,0,.1-.1.1.1,0,0,0-.1-.1.09.09,0,0,0-.1.1A.1.1,0,0,0,.33,73.61Z" fill="#003134"/><path d="M3.93,73.67a.16.16,0,1,0-.16-.16A.16.16,0,0,0,3.93,73.67Z" fill="#003134"/><path d="M7.53,73.71a.2.2,0,1,0-.2-.2A.2.2,0,0,0,7.53,73.71Z" fill="#003134"/><path d="M11.13,73.75a.24.24,0,1,0-.24-.24A.24.24,0,0,0,11.13,73.75Z" fill="#003134"/><path d="M14.73,73.79a.29.29,0,0,0,.28-.28.28.28,0,0,0-.28-.28.27.27,0,0,0-.28.28A.28.28,0,0,0,14.73,73.79Z" fill="#003134"/><path d="M18.33,73.83a.32.32,0,0,0,.32-.32.32.32,0,0,0-.64,0A.32.32,0,0,0,18.33,73.83Z" fill="#003134"/><path d="M21.93,73.87a.36.36,0,1,0-.36-.36A.36.36,0,0,0,21.93,73.87Z" fill="#003134"/><path d="M25.53,73.9a.4.4,0,0,0,.39-.39.39.39,0,0,0-.39-.39.38.38,0,0,0-.39.39A.39.39,0,0,0,25.53,73.9Z" fill="#003134"/><path d="M29.13,73.94a.43.43,0,0,0,.43-.43.43.43,0,0,0-.86,0A.43.43,0,0,0,29.13,73.94Z" fill="#003134"/><path d="M32.73,74a.47.47,0,1,0-.47-.47A.47.47,0,0,0,32.73,74Z" fill="#003134"/><path d="M36.33,74a.5.5,0,0,0,.5-.5.5.5,0,0,0-1,0A.5.5,0,0,0,36.33,74Z" fill="#003134"/><path d="M39.93,74.05a.54.54,0,1,0-.54-.54A.54.54,0,0,0,39.93,74.05Z" fill="#003134"/><path d="M43.53,74.08a.58.58,0,0,0,.57-.57.57.57,0,1,0-1.14,0A.58.58,0,0,0,43.53,74.08Z" fill="#003134"/><path d="M47.13,74.12a.61.61,0,0,0,.61-.61.61.61,0,0,0-1.22,0A.61.61,0,0,0,47.13,74.12Z" fill="#003134"/><circle cx="50.73" cy="73.51" r="0.64" fill="#003134"/><path d="M54.33,74.18a.67.67,0,1,0-.67-.67A.67.67,0,0,0,54.33,74.18Z" fill="#003134"/><path d="M57.93,74.21a.7.7,0,1,0-.7-.7A.7.7,0,0,0,57.93,74.21Z" fill="#003134"/><path d="M61.53,74.24a.73.73,0,1,0-.73-.73A.73.73,0,0,0,61.53,74.24Z" fill="#003134"/><circle cx="65.13" cy="73.51" r="0.75" fill="#003134"/><path d="M68.73,74.29a.78.78,0,1,0-.78-.78A.78.78,0,0,0,68.73,74.29Z" fill="#003134"/><circle cx="72.33" cy="73.51" r="0.81" fill="#003134"/><path d="M75.93,74.34a.83.83,0,1,0-.83-.83A.83.83,0,0,0,75.93,74.34Z" fill="#003134"/><path d="M79.53,74.36a.85.85,0,1,0-.85-.85A.85.85,0,0,0,79.53,74.36Z" fill="#003134"/><circle cx="83.13" cy="73.51" r="0.87" fill="#003134"/><path d="M86.73,74.39a.88.88,0,1,0,0-1.76.88.88,0,1,0,0,1.76Z" fill="#003134"/><path d="M90.33,74.41a.9.9,0,1,0-.9-.9A.9.9,0,0,0,90.33,74.41Z" fill="#003134"/><path d="M93.93,74.42a.91.91,0,1,0-.91-.91A.91.91,0,0,0,93.93,74.42Z" fill="#003134"/><circle cx="97.53" cy="73.51" r="0.92" fill="#003134"/><circle cx="101.13" cy="73.51" r="0.93" fill="#003134"/><path d="M104.73,74.45a.94.94,0,1,0-.94-.94A.94.94,0,0,0,104.73,74.45Z" fill="#003134"/><path d="M108.33,74.45a.94.94,0,1,0-.94-.94A.94.94,0,0,0,108.33,74.45Z" fill="#003134"/><path d="M111.93,74.45a.94.94,0,1,0-.94-.94A.94.94,0,0,0,111.93,74.45Z" fill="#003134"/><circle cx="115.53" cy="73.51" r="0.81" fill="#003134"/><path d="M.33,77.19a.09.09,0,0,0,.08-.08.08.08,0,1,0-.16,0A.09.09,0,0,0,.33,77.19Z" fill="#003134"/><path d="M3.93,77.24a.13.13,0,1,0-.13-.13A.13.13,0,0,0,3.93,77.24Z" fill="#003134"/><circle cx="7.53" cy="77.11" r="0.17" fill="#003134"/><path d="M11.13,77.32a.21.21,0,0,0,.21-.21.21.21,0,1,0-.42,0A.21.21,0,0,0,11.13,77.32Z" fill="#003134"/><path d="M14.73,77.36a.25.25,0,1,0-.25-.25A.25.25,0,0,0,14.73,77.36Z" fill="#003134"/><circle cx="18.33" cy="77.11" r="0.29" fill="#003134"/><path d="M21.93,77.44a.33.33,0,1,0-.33-.33A.33.33,0,0,0,21.93,77.44Z" fill="#003134"/><path d="M25.53,77.47a.36.36,0,1,0-.36-.36A.36.36,0,0,0,25.53,77.47Z" fill="#003134"/><circle cx="29.13" cy="77.11" r="0.4" fill="#003134"/><path d="M32.73,77.54a.43.43,0,0,0,.43-.43.43.43,0,0,0-.86,0A.43.43,0,0,0,32.73,77.54Z" fill="#003134"/><path d="M36.33,77.58a.47.47,0,1,0-.47-.47A.47.47,0,0,0,36.33,77.58Z" fill="#003134"/><path d="M39.93,77.61a.5.5,0,0,0,.5-.5.5.5,0,0,0-1,0A.5.5,0,0,0,39.93,77.61Z" fill="#003134"/><path d="M43.53,77.65a.54.54,0,1,0-.54-.54A.54.54,0,0,0,43.53,77.65Z" fill="#003134"/><path d="M47.13,77.68a.58.58,0,0,0,.57-.57.57.57,0,0,0-1.14,0A.58.58,0,0,0,47.13,77.68Z" fill="#003134"/><path d="M50.73,77.71a.6.6,0,1,0-.6-.6A.6.6,0,0,0,50.73,77.71Z" fill="#003134"/><circle cx="54.33" cy="77.11" r="0.63" fill="#003134"/><path d="M57.93,77.77a.66.66,0,1,0-.66-.66A.67.67,0,0,0,57.93,77.77Z" fill="#003134"/><circle cx="61.53" cy="77.11" r="0.69" fill="#003134"/><path d="M65.13,77.82a.71.71,0,1,0-.71-.71A.71.71,0,0,0,65.13,77.82Z" fill="#003134"/><path d="M68.73,77.85a.74.74,0,1,0-.74-.74A.74.74,0,0,0,68.73,77.85Z" fill="#003134"/><path d="M72.33,77.87a.76.76,0,1,0-.76-.76A.76.76,0,0,0,72.33,77.87Z" fill="#003134"/><path d="M75.93,77.89a.78.78,0,1,0-.78-.78A.78.78,0,0,0,75.93,77.89Z" fill="#003134"/><path d="M79.53,77.91a.8.8,0,1,0-.8-.8A.8.8,0,0,0,79.53,77.91Z" fill="#003134"/><path d="M83.13,77.93a.82.82,0,1,0-.82-.82A.82.82,0,0,0,83.13,77.93Z" fill="#003134"/><path d="M86.73,78a.84.84,0,1,0-.84-.84A.85.85,0,0,0,86.73,78Z" fill="#003134"/><path d="M90.33,78a.85.85,0,1,0-.85-.85A.85.85,0,0,0,90.33,78Z" fill="#003134"/><circle cx="93.93" cy="77.11" r="0.86" fill="#003134"/><circle cx="97.53" cy="77.11" r="0.87" fill="#003134"/><path d="M101.13,78a.88.88,0,0,0,0-1.76.88.88,0,0,0,0,1.76Z" fill="#003134"/><path d="M104.73,78a.89.89,0,1,0-.89-.89A.89.89,0,0,0,104.73,78Z" fill="#003134"/><path d="M108.33,78a.89.89,0,1,0-.89-.89A.89.89,0,0,0,108.33,78Z" fill="#003134"/><path d="M111.93,78a.89.89,0,1,0-.89-.89A.89.89,0,0,0,111.93,78Z" fill="#003134"/><path d="M115.53,77.88a.77.77,0,0,0,0-1.54.77.77,0,0,0,0,1.54Z" fill="#003134"/><path d="M.33,80.76a.05.05,0,0,0,0-.05,0,0,0,0,0,0,0,0,0,0,0,0,0,0A.05.05,0,0,0,.33,80.76Z" fill="#003134"/><path d="M3.93,80.81a.11.11,0,0,0,.1-.1.1.1,0,0,0-.1-.1.09.09,0,0,0-.1.1A.1.1,0,0,0,3.93,80.81Z" fill="#003134"/><path d="M7.53,80.85a.14.14,0,0,0,.14-.14.14.14,0,1,0-.28,0A.14.14,0,0,0,7.53,80.85Z" fill="#003134"/><path d="M11.13,80.89a.18.18,0,1,0-.18-.18A.18.18,0,0,0,11.13,80.89Z" fill="#003134"/><path d="M14.73,80.93a.22.22,0,1,0-.22-.22A.22.22,0,0,0,14.73,80.93Z" fill="#003134"/><path d="M18.33,81a.26.26,0,0,0,.26-.26.26.26,0,0,0-.52,0A.26.26,0,0,0,18.33,81Z" fill="#003134"/><circle cx="21.93" cy="80.71" r="0.29" fill="#003134"/><path d="M25.53,81a.33.33,0,1,0-.33-.33A.33.33,0,0,0,25.53,81Z" fill="#003134"/><path d="M29.13,81.08a.38.38,0,0,0,.37-.37.37.37,0,0,0-.74,0A.38.38,0,0,0,29.13,81.08Z" fill="#003134"/><circle cx="32.73" cy="80.71" r="0.4" fill="#003134"/><path d="M36.33,81.14a.43.43,0,0,0,.43-.43.43.43,0,0,0-.86,0A.43.43,0,0,0,36.33,81.14Z" fill="#003134"/><path d="M39.93,81.18a.47.47,0,1,0-.47-.47A.47.47,0,0,0,39.93,81.18Z" fill="#003134"/><path d="M43.53,81.21a.5.5,0,0,0,.5-.5.5.5,0,0,0-1,0A.5.5,0,0,0,43.53,81.21Z" fill="#003134"/><path d="M47.13,81.24a.53.53,0,1,0-.53-.53A.53.53,0,0,0,47.13,81.24Z" fill="#003134"/><path d="M50.73,81.27a.56.56,0,1,0-.56-.56A.56.56,0,0,0,50.73,81.27Z" fill="#003134"/><path d="M54.33,81.3a.6.6,0,0,0,.59-.59.59.59,0,0,0-.59-.59.58.58,0,0,0-.59.59A.59.59,0,0,0,54.33,81.3Z" fill="#003134"/><path d="M57.93,81.33a.62.62,0,1,0-.62-.62A.62.62,0,0,0,57.93,81.33Z" fill="#003134"/><path d="M61.53,81.36a.65.65,0,1,0-.65-.65A.65.65,0,0,0,61.53,81.36Z" fill="#003134"/><path d="M65.13,81.38a.67.67,0,1,0-.67-.67A.67.67,0,0,0,65.13,81.38Z" fill="#003134"/><path d="M68.73,81.41a.7.7,0,1,0-.7-.7A.7.7,0,0,0,68.73,81.41Z" fill="#003134"/><path d="M72.33,81.43a.72.72,0,1,0-.72-.72A.72.72,0,0,0,72.33,81.43Z" fill="#003134"/><path d="M75.93,81.45a.74.74,0,1,0-.74-.74A.74.74,0,0,0,75.93,81.45Z" fill="#003134"/><path d="M79.53,81.47a.76.76,0,1,0-.76-.76A.76.76,0,0,0,79.53,81.47Z" fill="#003134"/><path d="M83.13,81.49a.78.78,0,1,0-.78-.78A.78.78,0,0,0,83.13,81.49Z" fill="#003134"/><path d="M86.73,81.5a.79.79,0,0,0,0-1.58.79.79,0,0,0,0,1.58Z" fill="#003134"/><circle cx="90.33" cy="80.71" r="0.81" fill="#003134"/><path d="M93.93,81.53a.82.82,0,1,0-.82-.82A.82.82,0,0,0,93.93,81.53Z" fill="#003134"/><path d="M97.53,81.54a.83.83,0,1,0-.83-.83A.83.83,0,0,0,97.53,81.54Z" fill="#003134"/><path d="M101.13,81.54a.83.83,0,1,0-.83-.83A.83.83,0,0,0,101.13,81.54Z" fill="#003134"/><path d="M104.73,81.55a.84.84,0,1,0-.84-.84A.85.85,0,0,0,104.73,81.55Z" fill="#003134"/><path d="M108.33,81.55a.84.84,0,1,0-.84-.84A.85.85,0,0,0,108.33,81.55Z" fill="#003134"/><path d="M111.93,81.55a.84.84,0,1,0-.84-.84A.85.85,0,0,0,111.93,81.55Z" fill="#003134"/><path d="M115.53,81.44a.73.73,0,1,0-.73-.73A.73.73,0,0,0,115.53,81.44Z" fill="#003134"/><path d="M.33,84.34a0,0,0,0,0,0,0,0,0,0,0,0,0,0,0,0,0,0,0,0,0A0,0,0,0,0,.33,84.34Z" fill="#003134"/><path d="M3.93,84.38a.07.07,0,1,0-.07-.07A.07.07,0,0,0,3.93,84.38Z" fill="#003134"/><circle cx="7.53" cy="84.31" r="0.11" fill="#003134"/><path d="M11.13,84.46a.15.15,0,0,0,.15-.15.15.15,0,1,0-.3,0A.15.15,0,0,0,11.13,84.46Z" fill="#003134"/><path d="M14.73,84.5a.2.2,0,0,0,.19-.19.19.19,0,0,0-.19-.19.18.18,0,0,0-.19.19A.19.19,0,0,0,14.73,84.5Z" fill="#003134"/><path d="M18.33,84.53a.22.22,0,1,0-.22-.22A.22.22,0,0,0,18.33,84.53Z" fill="#003134"/><path d="M21.93,84.57a.26.26,0,0,0,.26-.26.26.26,0,0,0-.52,0A.26.26,0,0,0,21.93,84.57Z" fill="#003134"/><path d="M25.53,84.61a.31.31,0,0,0,.3-.3.3.3,0,0,0-.3-.3.29.29,0,0,0-.3.3A.3.3,0,0,0,25.53,84.61Z" fill="#003134"/><path d="M29.13,84.64a.33.33,0,1,0-.33-.33A.33.33,0,0,0,29.13,84.64Z" fill="#003134"/><path d="M32.73,84.68a.38.38,0,0,0,.37-.37.37.37,0,1,0-.74,0A.38.38,0,0,0,32.73,84.68Z" fill="#003134"/><circle cx="36.33" cy="84.31" r="0.4" fill="#003134"/><path d="M39.93,84.74a.43.43,0,0,0,.43-.43.43.43,0,1,0-.86,0A.43.43,0,0,0,39.93,84.74Z" fill="#003134"/><circle cx="43.53" cy="84.31" r="0.46" fill="#003134"/><path d="M47.13,84.8a.49.49,0,1,0-.49-.49A.49.49,0,0,0,47.13,84.8Z" fill="#003134"/><circle cx="50.73" cy="84.31" r="0.52" fill="#003134"/><path d="M54.33,84.86a.55.55,0,0,0,.55-.55.55.55,0,0,0-1.1,0A.55.55,0,0,0,54.33,84.86Z" fill="#003134"/><circle cx="57.93" cy="84.31" r="0.58" fill="#003134"/><path d="M61.53,84.91a.6.6,0,1,0-.6-.6A.6.6,0,0,0,61.53,84.91Z" fill="#003134"/><circle cx="65.13" cy="84.31" r="0.63" fill="#003134"/><path d="M68.73,85a.65.65,0,1,0-.65-.65A.65.65,0,0,0,68.73,85Z" fill="#003134"/><path d="M72.33,85a.67.67,0,1,0-.67-.67A.67.67,0,0,0,72.33,85Z" fill="#003134"/><circle cx="75.93" cy="84.31" r="0.69" fill="#003134"/><path d="M79.53,85a.71.71,0,1,0-.71-.71A.71.71,0,0,0,79.53,85Z" fill="#003134"/><path d="M83.13,85a.73.73,0,1,0-.73-.73A.73.73,0,0,0,83.13,85Z" fill="#003134"/><circle cx="86.73" cy="84.31" r="0.75" fill="#003134"/><path d="M90.33,85.07a.76.76,0,1,0-.76-.76A.76.76,0,0,0,90.33,85.07Z" fill="#003134"/><path d="M93.93,85.08a.77.77,0,0,0,0-1.54.77.77,0,1,0,0,1.54Z" fill="#003134"/><path d="M97.53,85.09a.78.78,0,1,0-.78-.78A.78.78,0,0,0,97.53,85.09Z" fill="#003134"/><path d="M101.13,85.1a.79.79,0,1,0,0-1.58.79.79,0,0,0,0,1.58Z" fill="#003134"/><path d="M104.73,85.1a.79.79,0,1,0,0-1.58.79.79,0,1,0,0,1.58Z" fill="#003134"/><path d="M108.33,85.1a.79.79,0,1,0,0-1.58.79.79,0,1,0,0,1.58Z" fill="#003134"/><path d="M111.93,85.1a.79.79,0,1,0,0-1.58.79.79,0,1,0,0,1.58Z" fill="#003134"/><circle cx="115.53" cy="84.31" r="0.69" fill="#003134"/><path d="M.33,87.92h0A0,0,0,0,0,.33,87.92Z" fill="#003134"/><path d="M3.93,88a0,0,0,1,0,0-.08,0,0,0,0,0,0,.08A0,0,0,0,0,3.93,88Z" fill="#003134"/><path d="M7.53,88a.09.09,0,0,0,.08-.08.08.08,0,0,0-.16,0A.09.09,0,0,0,7.53,88Z" fill="#003134"/><circle cx="11.13" cy="87.91" r="0.12" fill="#003134"/><path d="M14.73,88.07a.16.16,0,1,0-.16-.16A.16.16,0,0,0,14.73,88.07Z" fill="#003134"/><path d="M18.33,88.1a.2.2,0,0,0,.19-.19.19.19,0,0,0-.19-.19.18.18,0,0,0-.19.19A.19.19,0,0,0,18.33,88.1Z" fill="#003134"/><circle cx="21.93" cy="87.91" r="0.23" fill="#003134"/><path d="M25.53,88.17a.26.26,0,0,0,.26-.26.26.26,0,0,0-.52,0A.26.26,0,0,0,25.53,88.17Z" fill="#003134"/><path d="M29.13,88.21a.31.31,0,0,0,.3-.3.3.3,0,0,0-.3-.3.29.29,0,0,0-.3.3A.3.3,0,0,0,29.13,88.21Z" fill="#003134"/><path d="M32.73,88.24a.33.33,0,1,0-.33-.33A.33.33,0,0,0,32.73,88.24Z" fill="#003134"/><path d="M36.33,88.27a.36.36,0,1,0-.36-.36A.36.36,0,0,0,36.33,88.27Z" fill="#003134"/><path d="M39.93,88.3a.4.4,0,0,0,.39-.39.39.39,0,0,0-.39-.39.38.38,0,0,0-.39.39A.39.39,0,0,0,39.93,88.3Z" fill="#003134"/><path d="M43.53,88.33a.42.42,0,1,0-.42-.42A.42.42,0,0,0,43.53,88.33Z" fill="#003134"/><path d="M47.13,88.36a.45.45,0,1,0-.45-.45A.45.45,0,0,0,47.13,88.36Z" fill="#003134"/><path d="M50.73,88.39a.49.49,0,0,0,.48-.48.48.48,0,0,0-.48-.48.47.47,0,0,0-.48.48A.48.48,0,0,0,50.73,88.39Z" fill="#003134"/><path d="M54.33,88.42a.51.51,0,1,0-.51-.51A.51.51,0,0,0,54.33,88.42Z" fill="#003134"/><path d="M57.93,88.45a.54.54,0,1,0-.54-.54A.54.54,0,0,0,57.93,88.45Z" fill="#003134"/><path d="M61.53,88.47a.56.56,0,1,0-.56-.56A.56.56,0,0,0,61.53,88.47Z" fill="#003134"/><path d="M65.13,88.5a.6.6,0,0,0,.59-.59.59.59,0,0,0-.59-.59.58.58,0,0,0-.59.59A.59.59,0,0,0,65.13,88.5Z" fill="#003134"/><path d="M68.73,88.52a.61.61,0,0,0,.61-.61.61.61,0,1,0-1.22,0A.61.61,0,0,0,68.73,88.52Z" fill="#003134"/><circle cx="72.33" cy="87.91" r="0.63" fill="#003134"/><path d="M75.93,88.56a.65.65,0,1,0-.65-.65A.65.65,0,0,0,75.93,88.56Z" fill="#003134"/><path d="M79.53,88.58a.67.67,0,1,0-.67-.67A.67.67,0,0,0,79.53,88.58Z" fill="#003134"/><path d="M83.13,88.59a.68.68,0,0,0,0-1.36.68.68,0,0,0,0,1.36Z" fill="#003134"/><path d="M86.73,88.61a.7.7,0,1,0-.7-.7A.7.7,0,0,0,86.73,88.61Z" fill="#003134"/><path d="M90.33,88.62a.71.71,0,1,0-.71-.71A.71.71,0,0,0,90.33,88.62Z" fill="#003134"/><path d="M93.93,88.63a.72.72,0,1,0-.72-.72A.72.72,0,0,0,93.93,88.63Z" fill="#003134"/><path d="M97.53,88.64a.73.73,0,1,0-.73-.73A.73.73,0,0,0,97.53,88.64Z" fill="#003134"/><path d="M101.13,88.65a.74.74,0,1,0-.74-.74A.74.74,0,0,0,101.13,88.65Z" fill="#003134"/><path d="M104.73,88.65a.74.74,0,1,0-.74-.74A.74.74,0,0,0,104.73,88.65Z" fill="#003134"/><circle cx="108.33" cy="87.91" r="0.75" fill="#003134"/><circle cx="111.93" cy="87.91" r="0.75" fill="#003134"/><path d="M115.53,88.56a.65.65,0,1,0-.65-.65A.65.65,0,0,0,115.53,88.56Z" fill="#003134"/><path d="M3.93,91.52h0a0,0,0,0,0,0,0s0,0,0,0Z" fill="#003134"/><path d="M7.53,91.56a.05.05,0,0,0,0,0,.05.05,0,1,0-.1,0A.05.05,0,0,0,7.53,91.56Z" fill="#003134"/><path d="M11.13,91.6a.09.09,0,1,0-.09-.09A.09.09,0,0,0,11.13,91.6Z" fill="#003134"/><circle cx="14.73" cy="91.51" r="0.12" fill="#003134"/><path d="M18.33,91.67a.16.16,0,1,0-.16-.16A.16.16,0,0,0,18.33,91.67Z" fill="#003134"/><path d="M21.93,91.7a.2.2,0,0,0,.19-.19.19.19,0,0,0-.19-.19.18.18,0,0,0-.19.19A.19.19,0,0,0,21.93,91.7Z" fill="#003134"/><circle cx="25.53" cy="91.51" r="0.23" fill="#003134"/><path d="M29.13,91.77a.26.26,0,0,0,.26-.26.26.26,0,1,0-.52,0A.26.26,0,0,0,29.13,91.77Z" fill="#003134"/><circle cx="32.73" cy="91.51" r="0.29" fill="#003134"/><path d="M36.33,91.84a.33.33,0,1,0-.33-.33A.33.33,0,0,0,36.33,91.84Z" fill="#003134"/><path d="M39.93,91.87a.36.36,0,1,0-.36-.36A.36.36,0,0,0,39.93,91.87Z" fill="#003134"/><path d="M43.53,91.9a.4.4,0,0,0,.39-.39.39.39,0,0,0-.39-.39.38.38,0,0,0-.39.39A.39.39,0,0,0,43.53,91.9Z" fill="#003134"/><path d="M47.13,91.93a.42.42,0,1,0-.42-.42A.42.42,0,0,0,47.13,91.93Z" fill="#003134"/><path d="M50.73,92a.44.44,0,0,0,.44-.44.44.44,0,0,0-.88,0A.44.44,0,0,0,50.73,92Z" fill="#003134"/><path d="M54.33,92a.47.47,0,1,0-.47-.47A.47.47,0,0,0,54.33,92Z" fill="#003134"/><path d="M57.93,92a.5.5,0,0,0,.5-.5.5.5,0,0,0-1,0A.5.5,0,0,0,57.93,92Z" fill="#003134"/><circle cx="61.53" cy="91.51" r="0.52" fill="#003134"/><path d="M65.13,92.05a.54.54,0,1,0-.54-.54A.54.54,0,0,0,65.13,92.05Z" fill="#003134"/><path d="M68.73,92.08a.58.58,0,0,0,.57-.57.57.57,0,0,0-1.14,0A.58.58,0,0,0,68.73,92.08Z" fill="#003134"/><path d="M72.33,92.1a.6.6,0,0,0,.59-.59.59.59,0,0,0-.59-.59.58.58,0,0,0-.59.59A.59.59,0,0,0,72.33,92.1Z" fill="#003134"/><path d="M75.93,92.11a.6.6,0,1,0-.6-.6A.6.6,0,0,0,75.93,92.11Z" fill="#003134"/><path d="M79.53,92.13a.62.62,0,1,0-.62-.62A.62.62,0,0,0,79.53,92.13Z" fill="#003134"/><circle cx="83.13" cy="91.51" r="0.64" fill="#003134"/><path d="M86.73,92.16a.65.65,0,1,0-.65-.65A.65.65,0,0,0,86.73,92.16Z" fill="#003134"/><path d="M90.33,92.17a.66.66,0,1,0-.66-.66A.67.67,0,0,0,90.33,92.17Z" fill="#003134"/><path d="M93.93,92.18a.67.67,0,1,0-.67-.67A.67.67,0,0,0,93.93,92.18Z" fill="#003134"/><path d="M97.53,92.19a.68.68,0,1,0,0-1.36.68.68,0,1,0,0,1.36Z" fill="#003134"/><circle cx="101.13" cy="91.51" r="0.69" fill="#003134"/><circle cx="104.73" cy="91.51" r="0.69" fill="#003134"/><path d="M108.33,92.21a.7.7,0,1,0-.7-.7A.7.7,0,0,0,108.33,92.21Z" fill="#003134"/><path d="M111.93,92.21a.7.7,0,1,0-.7-.7A.7.7,0,0,0,111.93,92.21Z" fill="#003134"/><path d="M115.53,92.11a.6.6,0,1,0-.6-.6A.6.6,0,0,0,115.53,92.11Z" fill="#003134"/><path d="M7.53,95.13a0,0,0,0,0,0,0,0,0,0,0,0,0,0,0,0,0,0,0,0,0A0,0,0,0,0,7.53,95.09Z" fill="#003134"/><path d="M11.13,95.16a.05.05,0,0,0,0,0,0,0,0,0,0-.1,0A.05.05,0,0,0,11.13,95.16Z" fill="#003134"/><path d="M14.73,95.2a.09.09,0,1,0-.09-.09A.09.09,0,0,0,14.73,95.2Z" fill="#003134"/><circle cx="18.33" cy="95.11" r="0.12" fill="#003134"/><path d="M21.93,95.27a.16.16,0,1,0-.16-.16A.16.16,0,0,0,21.93,95.27Z" fill="#003134"/><path d="M25.53,95.3a.2.2,0,0,0,.19-.19.19.19,0,0,0-.19-.19.18.18,0,0,0-.19.19A.19.19,0,0,0,25.53,95.3Z" fill="#003134"/><path d="M29.13,95.33a.22.22,0,1,0-.22-.22A.22.22,0,0,0,29.13,95.33Z" fill="#003134"/><path d="M32.73,95.37a.26.26,0,0,0,.26-.26.26.26,0,1,0-.52,0A.26.26,0,0,0,32.73,95.37Z" fill="#003134"/><circle cx="36.33" cy="95.11" r="0.29" fill="#003134"/><path d="M39.93,95.43a.32.32,0,0,0,.32-.32.32.32,0,1,0-.64,0A.32.32,0,0,0,39.93,95.43Z" fill="#003134"/><circle cx="43.53" cy="95.11" r="0.35" fill="#003134"/><path d="M47.13,95.49a.38.38,0,1,0-.38-.38A.38.38,0,0,0,47.13,95.49Z" fill="#003134"/><circle cx="50.73" cy="95.11" r="0.4" fill="#003134"/><path d="M54.33,95.54a.43.43,0,0,0,.43-.43.43.43,0,1,0-.86,0A.43.43,0,0,0,54.33,95.54Z" fill="#003134"/><path d="M57.93,95.56a.45.45,0,1,0-.45-.45A.45.45,0,0,0,57.93,95.56Z" fill="#003134"/><path d="M61.53,95.59a.49.49,0,0,0,.48-.48.48.48,0,0,0-.48-.48.47.47,0,0,0-.48.48A.48.48,0,0,0,61.53,95.59Z" fill="#003134"/><path d="M65.13,95.61a.5.5,0,0,0,.5-.5.5.5,0,0,0-1,0A.5.5,0,0,0,65.13,95.61Z" fill="#003134"/><circle cx="68.73" cy="95.11" r="0.52" fill="#003134"/><path d="M72.33,95.65a.54.54,0,1,0-.54-.54A.54.54,0,0,0,72.33,95.65Z" fill="#003134"/><path d="M75.93,95.67a.56.56,0,1,0-.56-.56A.56.56,0,0,0,75.93,95.67Z" fill="#003134"/><circle cx="79.53" cy="95.11" r="0.58" fill="#003134"/><path d="M83.13,95.7a.6.6,0,0,0,.59-.59.59.59,0,0,0-.59-.59.58.58,0,0,0-.59.59A.59.59,0,0,0,83.13,95.7Z" fill="#003134"/><path d="M86.73,95.71a.6.6,0,1,0-.6-.6A.6.6,0,0,0,86.73,95.71Z" fill="#003134"/><path d="M90.33,95.73a.62.62,0,1,0-.62-.62A.62.62,0,0,0,90.33,95.73Z" fill="#003134"/><circle cx="93.93" cy="95.11" r="0.63" fill="#003134"/><circle cx="97.53" cy="95.11" r="0.63" fill="#003134"/><circle cx="101.13" cy="95.11" r="0.64" fill="#003134"/><circle cx="104.73" cy="95.11" r="0.64" fill="#003134"/><path d="M108.33,95.76a.65.65,0,1,0-.65-.65A.65.65,0,0,0,108.33,95.76Z" fill="#003134"/><path d="M111.93,95.76a.65.65,0,1,0-.65-.65A.65.65,0,0,0,111.93,95.76Z" fill="#003134"/><path d="M115.53,95.67a.56.56,0,1,0-.56-.56A.56.56,0,0,0,115.53,95.67Z" fill="#003134"/><path d="M11.13,98.73a0,0,0,0,0,0,0l0,0a0,0,0,0,0,0,0A0,0,0,0,0,11.13,98.69Z" fill="#003134"/><circle cx="14.73" cy="98.71" r="0.06" fill="#003134"/><path d="M18.33,98.8a.09.09,0,1,0-.09-.09A.09.09,0,0,0,18.33,98.8Z" fill="#003134"/><circle cx="21.93" cy="98.71" r="0.12" fill="#003134"/><path d="M25.53,98.87a.16.16,0,1,0-.16-.16A.16.16,0,0,0,25.53,98.87Z" fill="#003134"/><path d="M29.13,98.9a.2.2,0,0,0,.19-.19.19.19,0,0,0-.19-.19.18.18,0,0,0-.19.19A.19.19,0,0,0,29.13,98.9Z" fill="#003134"/><path d="M32.73,98.93a.22.22,0,1,0-.22-.22A.22.22,0,0,0,32.73,98.93Z" fill="#003134"/><path d="M36.33,99a.25.25,0,1,0-.25-.25A.25.25,0,0,0,36.33,99Z" fill="#003134"/><path d="M39.93,99a.29.29,0,0,0,.28-.28.28.28,0,0,0-.28-.28.27.27,0,0,0-.28.28A.28.28,0,0,0,39.93,99Z" fill="#003134"/><path d="M43.53,99a.31.31,0,1,0-.31-.31A.31.31,0,0,0,43.53,99Z" fill="#003134"/><path d="M47.13,99a.33.33,0,1,0-.33-.33A.33.33,0,0,0,47.13,99Z" fill="#003134"/><path d="M50.73,99.07a.36.36,0,1,0-.36-.36A.36.36,0,0,0,50.73,99.07Z" fill="#003134"/><path d="M54.33,99.1a.4.4,0,0,0,.39-.39.39.39,0,0,0-.39-.39.38.38,0,0,0-.39.39A.39.39,0,0,0,54.33,99.1Z" fill="#003134"/><circle cx="57.93" cy="98.71" r="0.41" fill="#003134"/><path d="M61.53,99.14a.43.43,0,0,0,.43-.43.43.43,0,1,0-.86,0A.43.43,0,0,0,61.53,99.14Z" fill="#003134"/><circle cx="65.13" cy="98.71" r="0.46" fill="#003134"/><path d="M68.73,99.19a.49.49,0,0,0,.48-.48.48.48,0,0,0-.48-.48.47.47,0,0,0-.48.48A.48.48,0,0,0,68.73,99.19Z" fill="#003134"/><path d="M72.33,99.21a.5.5,0,0,0,.5-.5.5.5,0,0,0-1,0A.5.5,0,0,0,72.33,99.21Z" fill="#003134"/><path d="M75.93,99.22a.51.51,0,1,0-.51-.51A.51.51,0,0,0,75.93,99.22Z" fill="#003134"/><path d="M79.53,99.24a.53.53,0,1,0-.53-.53A.53.53,0,0,0,79.53,99.24Z" fill="#003134"/><path d="M83.13,99.25a.54.54,0,1,0-.54-.54A.54.54,0,0,0,83.13,99.25Z" fill="#003134"/><path d="M86.73,99.27a.56.56,0,1,0-.56-.56A.56.56,0,0,0,86.73,99.27Z" fill="#003134"/><path d="M90.33,99.28a.58.58,0,0,0,.57-.57.57.57,0,1,0-1.14,0A.58.58,0,0,0,90.33,99.28Z" fill="#003134"/><circle cx="93.93" cy="98.71" r="0.58" fill="#003134"/><path d="M97.53,99.3a.6.6,0,0,0,.59-.59.59.59,0,0,0-.59-.59.58.58,0,0,0-.59.59A.59.59,0,0,0,97.53,99.3Z" fill="#003134"/><path d="M101.13,99.3a.6.6,0,0,0,.59-.59.59.59,0,0,0-.59-.59.58.58,0,0,0-.59.59A.59.59,0,0,0,101.13,99.3Z" fill="#003134"/><path d="M104.73,99.31a.6.6,0,1,0-.6-.6A.6.6,0,0,0,104.73,99.31Z" fill="#003134"/><path d="M108.33,99.31a.6.6,0,1,0-.6-.6A.6.6,0,0,0,108.33,99.31Z" fill="#003134"/><path d="M111.93,99.31a.6.6,0,1,0-.6-.6A.6.6,0,0,0,111.93,99.31Z" fill="#003134"/><circle cx="115.53" cy="98.71" r="0.52" fill="#003134"/><path d="M14.73,102.33a0,0,0,0,0,0,0,0,0,0,0,0,0,0,0,0,0,0,0,0,0A0,0,0,0,0,14.73,102.29Z" fill="#003134"/><path d="M18.33,102.36a.05.05,0,0,0,.05,0,0,0,0,1,0-.1,0A.05.05,0,0,0,18.33,102.36Z" fill="#003134"/><path d="M21.93,102.4a.09.09,0,1,0-.09-.09A.09.09,0,0,0,21.93,102.4Z" fill="#003134"/><circle cx="25.53" cy="102.31" r="0.12" fill="#003134"/><path d="M29.13,102.46a.15.15,0,0,0,.15-.15.15.15,0,0,0-.3,0A.15.15,0,0,0,29.13,102.46Z" fill="#003134"/><path d="M32.73,102.49a.18.18,0,1,0-.18-.18A.18.18,0,0,0,32.73,102.49Z" fill="#003134"/><path d="M36.33,102.52a.21.21,0,0,0,.21-.21.21.21,0,0,0-.42,0A.21.21,0,0,0,36.33,102.52Z" fill="#003134"/><path d="M39.93,102.55a.24.24,0,0,0,.24-.24.24.24,0,0,0-.48,0A.24.24,0,0,0,39.93,102.55Z" fill="#003134"/><path d="M43.53,102.58a.27.27,0,1,0-.27-.27A.27.27,0,0,0,43.53,102.58Z" fill="#003134"/><circle cx="47.13" cy="102.31" r="0.29" fill="#003134"/><path d="M50.73,102.63a.32.32,0,0,0,.32-.32.32.32,0,0,0-.64,0A.32.32,0,0,0,50.73,102.63Z" fill="#003134"/><circle cx="54.33" cy="102.31" r="0.35" fill="#003134"/><path d="M57.93,102.68a.38.38,0,0,0,.37-.37.37.37,0,0,0-.74,0A.38.38,0,0,0,57.93,102.68Z" fill="#003134"/><path d="M61.53,102.7a.4.4,0,0,0,.39-.39.39.39,0,0,0-.39-.39.38.38,0,0,0-.39.39A.39.39,0,0,0,61.53,102.7Z" fill="#003134"/><circle cx="65.13" cy="102.31" r="0.41" fill="#003134"/><path d="M68.73,102.74a.43.43,0,0,0,.43-.43.43.43,0,1,0-.86,0A.43.43,0,0,0,68.73,102.74Z" fill="#003134"/><path d="M72.33,102.76a.45.45,0,1,0-.45-.45A.45.45,0,0,0,72.33,102.76Z" fill="#003134"/><path d="M75.93,102.78a.47.47,0,1,0-.47-.47A.47.47,0,0,0,75.93,102.78Z" fill="#003134"/><path d="M79.53,102.79a.49.49,0,0,0,.48-.48.48.48,0,0,0-.48-.48.47.47,0,0,0-.48.48A.48.48,0,0,0,79.53,102.79Z" fill="#003134"/><path d="M83.13,102.81a.5.5,0,0,0,.5-.5.5.5,0,0,0-1,0A.5.5,0,0,0,83.13,102.81Z" fill="#003134"/><path d="M86.73,102.82a.51.51,0,1,0-.51-.51A.51.51,0,0,0,86.73,102.82Z" fill="#003134"/><circle cx="90.33" cy="102.31" r="0.52" fill="#003134"/><path d="M93.93,102.84a.53.53,0,1,0-.53-.53A.53.53,0,0,0,93.93,102.84Z" fill="#003134"/><path d="M97.53,102.85a.54.54,0,1,0-.54-.54A.54.54,0,0,0,97.53,102.85Z" fill="#003134"/><path d="M101.13,102.85a.54.54,0,1,0-.54-.54A.54.54,0,0,0,101.13,102.85Z" fill="#003134"/><path d="M104.73,102.86a.55.55,0,0,0,.55-.55.55.55,0,1,0-1.1,0A.55.55,0,0,0,104.73,102.86Z" fill="#003134"/><path d="M108.33,102.86a.55.55,0,0,0,.55-.55.55.55,0,1,0-1.1,0A.55.55,0,0,0,108.33,102.86Z" fill="#003134"/><path d="M111.93,102.86a.55.55,0,0,0,.55-.55.55.55,0,1,0-1.1,0A.55.55,0,0,0,111.93,102.86Z" fill="#003134"/><path d="M115.53,102.79a.49.49,0,0,0,.48-.48.48.48,0,0,0-.48-.48.47.47,0,0,0-.48.48A.48.48,0,0,0,115.53,102.79Z" fill="#003134"/><path d="M18.33,105.93a0,0,0,0,0,0,0,0,0,0,0,0,0,0l0,0A0,0,0,0,0,18.33,105.93Z" fill="#003134"/><path d="M21.93,106a.05.05,0,0,0,.05,0,0,0,0,1,0-.1,0A.05.05,0,0,0,21.93,106Z" fill="#003134"/><path d="M25.53,106a.09.09,0,0,0,.08-.08.08.08,0,1,0-.16,0A.09.09,0,0,0,25.53,106Z" fill="#003134"/><circle cx="29.13" cy="105.91" r="0.11" fill="#003134"/><path d="M32.73,106.05a.14.14,0,0,0,.14-.14.14.14,0,1,0-.28,0A.14.14,0,0,0,32.73,106.05Z" fill="#003134"/><circle cx="36.33" cy="105.91" r="0.17" fill="#003134"/><path d="M39.93,106.11a.2.2,0,1,0-.2-.2A.2.2,0,0,0,39.93,106.11Z" fill="#003134"/><circle cx="43.53" cy="105.91" r="0.23" fill="#003134"/><path d="M47.13,106.16a.25.25,0,1,0-.25-.25A.25.25,0,0,0,47.13,106.16Z" fill="#003134"/><path d="M50.73,106.19a.29.29,0,0,0,.28-.28.28.28,0,0,0-.28-.28.27.27,0,0,0-.28.28A.28.28,0,0,0,50.73,106.19Z" fill="#003134"/><path d="M54.33,106.21a.31.31,0,0,0,.3-.3.3.3,0,0,0-.3-.3.29.29,0,0,0-.3.3A.3.3,0,0,0,54.33,106.21Z" fill="#003134"/><path d="M57.93,106.24a.33.33,0,1,0-.33-.33A.33.33,0,0,0,57.93,106.24Z" fill="#003134"/><circle cx="61.53" cy="105.91" r="0.35" fill="#003134"/><path d="M65.13,106.28a.38.38,0,0,0,.37-.37.37.37,0,0,0-.74,0A.38.38,0,0,0,65.13,106.28Z" fill="#003134"/><path d="M68.73,106.3a.4.4,0,0,0,.39-.39.39.39,0,0,0-.39-.39.38.38,0,0,0-.39.39A.39.39,0,0,0,68.73,106.3Z" fill="#003134"/><circle cx="72.33" cy="105.91" r="0.4" fill="#003134"/><path d="M75.93,106.33a.42.42,0,1,0-.42-.42A.42.42,0,0,0,75.93,106.33Z" fill="#003134"/><path d="M79.53,106.35a.44.44,0,0,0,.44-.44.44.44,0,0,0-.88,0A.44.44,0,0,0,79.53,106.35Z" fill="#003134"/><path d="M83.13,106.36a.45.45,0,1,0-.45-.45A.45.45,0,0,0,83.13,106.36Z" fill="#003134"/><circle cx="86.73" cy="105.91" r="0.46" fill="#003134"/><path d="M90.33,106.38a.47.47,0,1,0-.47-.47A.47.47,0,0,0,90.33,106.38Z" fill="#003134"/><path d="M93.93,106.39a.49.49,0,0,0,.48-.48.48.48,0,0,0-.48-.48.47.47,0,0,0-.48.48A.48.48,0,0,0,93.93,106.39Z" fill="#003134"/><path d="M97.53,106.4a.49.49,0,1,0-.49-.49A.49.49,0,0,0,97.53,106.4Z" fill="#003134"/><path d="M101.13,106.4a.49.49,0,1,0-.49-.49A.49.49,0,0,0,101.13,106.4Z" fill="#003134"/><path d="M104.73,106.41a.5.5,0,0,0,.5-.5.5.5,0,0,0-1,0A.5.5,0,0,0,104.73,106.41Z" fill="#003134"/><path d="M108.33,106.41a.5.5,0,0,0,.5-.5.5.5,0,0,0-1,0A.5.5,0,0,0,108.33,106.41Z" fill="#003134"/><path d="M111.93,106.41a.5.5,0,0,0,.5-.5.5.5,0,0,0-1,0A.5.5,0,0,0,111.93,106.41Z" fill="#003134"/><path d="M115.53,106.34a.43.43,0,0,0,.43-.43.43.43,0,0,0-.86,0A.43.43,0,0,0,115.53,106.34Z" fill="#003134"/><path d="M21.93,109.52h0a0,0,0,0,0,0,0s0,0,0,0Z" fill="#003134"/><path d="M25.53,109.55a0,0,0,0,0,0-.08,0,0,0,0,0,0,.08A0,0,0,0,0,25.53,109.55Z" fill="#003134"/><path d="M29.13,109.58a.07.07,0,1,0-.07-.07A.07.07,0,0,0,29.13,109.58Z" fill="#003134"/><path d="M32.73,109.61a.11.11,0,0,0,.1-.1.1.1,0,0,0-.1-.1.09.09,0,0,0-.1.1A.1.1,0,0,0,32.73,109.61Z" fill="#003134"/><path d="M36.33,109.64a.13.13,0,1,0-.13-.13A.13.13,0,0,0,36.33,109.64Z" fill="#003134"/><path d="M39.93,109.67a.16.16,0,1,0-.16-.16A.16.16,0,0,0,39.93,109.67Z" fill="#003134"/><path d="M43.53,109.7a.2.2,0,0,0,.19-.19.19.19,0,0,0-.19-.19.18.18,0,0,0-.19.19A.19.19,0,0,0,43.53,109.7Z" fill="#003134"/><path d="M47.13,109.72a.21.21,0,0,0,.21-.21.21.21,0,1,0-.42,0A.21.21,0,0,0,47.13,109.72Z" fill="#003134"/><path d="M50.73,109.75a.24.24,0,1,0-.24-.24A.24.24,0,0,0,50.73,109.75Z" fill="#003134"/><path d="M54.33,109.77a.26.26,0,0,0,.26-.26.26.26,0,1,0-.52,0A.26.26,0,0,0,54.33,109.77Z" fill="#003134"/><path d="M57.93,109.79a.29.29,0,0,0,.28-.28.28.28,0,0,0-.28-.28.27.27,0,0,0-.28.28A.28.28,0,0,0,57.93,109.79Z" fill="#003134"/><path d="M61.53,109.81a.31.31,0,0,0,.3-.3.3.3,0,0,0-.3-.3.29.29,0,0,0-.3.3A.3.3,0,0,0,61.53,109.81Z" fill="#003134"/><path d="M65.13,109.83a.32.32,0,0,0,.32-.32.32.32,0,0,0-.64,0A.32.32,0,0,0,65.13,109.83Z" fill="#003134"/><circle cx="68.73" cy="109.51" r="0.34" fill="#003134"/><path d="M72.33,109.87a.36.36,0,1,0-.36-.36A.36.36,0,0,0,72.33,109.87Z" fill="#003134"/><path d="M75.93,109.88a.38.38,0,0,0,.37-.37.37.37,0,1,0-.74,0A.38.38,0,0,0,75.93,109.88Z" fill="#003134"/><path d="M79.53,109.9a.4.4,0,0,0,.39-.39.39.39,0,0,0-.39-.39.38.38,0,0,0-.39.39A.39.39,0,0,0,79.53,109.9Z" fill="#003134"/><circle cx="83.13" cy="109.51" r="0.4" fill="#003134"/><circle cx="86.73" cy="109.51" r="0.41" fill="#003134"/><path d="M90.33,109.93a.42.42,0,1,0-.42-.42A.42.42,0,0,0,90.33,109.93Z" fill="#003134"/><path d="M93.93,109.94a.43.43,0,0,0,.43-.43.43.43,0,1,0-.86,0A.43.43,0,0,0,93.93,109.94Z" fill="#003134"/><path d="M97.53,110a.44.44,0,0,0,.44-.44.44.44,0,1,0-.88,0A.44.44,0,0,0,97.53,110Z" fill="#003134"/><path d="M101.13,110a.45.45,0,1,0-.45-.45A.45.45,0,0,0,101.13,110Z" fill="#003134"/><path d="M104.73,110a.45.45,0,1,0-.45-.45A.45.45,0,0,0,104.73,110Z" fill="#003134"/><path d="M108.33,110a.45.45,0,1,0-.45-.45A.45.45,0,0,0,108.33,110Z" fill="#003134"/><path d="M111.93,110a.45.45,0,1,0-.45-.45A.45.45,0,0,0,111.93,110Z" fill="#003134"/><path d="M115.53,109.9a.4.4,0,0,0,.39-.39.39.39,0,0,0-.39-.39.38.38,0,0,0-.39.39A.39.39,0,0,0,115.53,109.9Z" fill="#003134"/><path d="M25.53,113.12h0a0,0,0,0,0,0,0s0,0,0,0A0,0,0,0,0,25.53,113.12Z" fill="#003134"/><path d="M29.13,113.14a0,0,0,0,0,0,0,0,0,0,0,0-.06,0A0,0,0,0,0,29.13,113.14Z" fill="#003134"/><circle cx="32.73" cy="113.11" r="0.06" fill="#003134"/><path d="M36.33,113.2a.09.09,0,1,0-.09-.09A.09.09,0,0,0,36.33,113.2Z" fill="#003134"/><circle cx="39.93" cy="113.11" r="0.12" fill="#003134"/><path d="M43.53,113.25a.14.14,0,0,0,.14-.14.14.14,0,1,0-.28,0A.14.14,0,0,0,43.53,113.25Z" fill="#003134"/><circle cx="47.13" cy="113.11" r="0.17" fill="#003134"/><path d="M50.73,113.3a.2.2,0,0,0,.19-.19.19.19,0,0,0-.19-.19.18.18,0,0,0-.19.19A.19.19,0,0,0,50.73,113.3Z" fill="#003134"/><path d="M54.33,113.33a.22.22,0,1,0-.22-.22A.22.22,0,0,0,54.33,113.33Z" fill="#003134"/><path d="M57.93,113.35a.24.24,0,1,0-.24-.24A.24.24,0,0,0,57.93,113.35Z" fill="#003134"/><path d="M61.53,113.37a.26.26,0,0,0,.26-.26.26.26,0,1,0-.52,0A.26.26,0,0,0,61.53,113.37Z" fill="#003134"/><path d="M65.13,113.39a.29.29,0,0,0,.28-.28.28.28,0,0,0-.28-.28.27.27,0,0,0-.28.28A.28.28,0,0,0,65.13,113.39Z" fill="#003134"/><path d="M68.73,113.41a.31.31,0,0,0,.3-.3.3.3,0,0,0-.3-.3.29.29,0,0,0-.3.3A.3.3,0,0,0,68.73,113.41Z" fill="#003134"/><path d="M72.33,113.42a.31.31,0,1,0-.31-.31A.31.31,0,0,0,72.33,113.42Z" fill="#003134"/><path d="M75.93,113.44a.33.33,0,1,0-.33-.33A.33.33,0,0,0,75.93,113.44Z" fill="#003134"/><circle cx="79.53" cy="113.11" r="0.34" fill="#003134"/><path d="M83.13,113.47a.36.36,0,1,0-.36-.36A.36.36,0,0,0,83.13,113.47Z" fill="#003134"/><path d="M86.73,113.48a.38.38,0,0,0,.37-.37.37.37,0,1,0-.74,0A.38.38,0,0,0,86.73,113.48Z" fill="#003134"/><path d="M90.33,113.49a.38.38,0,1,0-.38-.38A.38.38,0,0,0,90.33,113.49Z" fill="#003134"/><path d="M93.93,113.5a.4.4,0,0,0,.39-.39.39.39,0,0,0-.39-.39.38.38,0,0,0-.39.39A.39.39,0,0,0,93.93,113.5Z" fill="#003134"/><path d="M97.53,113.5a.4.4,0,0,0,.39-.39.39.39,0,0,0-.39-.39.38.38,0,0,0-.39.39A.39.39,0,0,0,97.53,113.5Z" fill="#003134"/><circle cx="101.13" cy="113.11" r="0.4" fill="#003134"/><circle cx="104.73" cy="113.11" r="0.4" fill="#003134"/><circle cx="108.33" cy="113.11" r="0.4" fill="#003134"/><circle cx="111.93" cy="113.11" r="0.4" fill="#003134"/><circle cx="115.53" cy="113.11" r="0.35" fill="#003134"/><path d="M32.73,116.73a0,0,0,0,0,0,0,0,0,0,0,0,0,0l0,0A0,0,0,0,0,32.73,116.73Z" fill="#003134"/><path d="M36.33,116.76a.05.05,0,0,0,.05-.05,0,0,0,0,0-.1,0A.05.05,0,0,0,36.33,116.76Z" fill="#003134"/><path d="M39.93,116.78a.07.07,0,1,0-.07-.07A.07.07,0,0,0,39.93,116.78Z" fill="#003134"/><path d="M43.53,116.8a.09.09,0,1,0-.09-.09A.09.09,0,0,0,43.53,116.8Z" fill="#003134"/><circle cx="47.13" cy="116.71" r="0.11" fill="#003134"/><path d="M50.73,116.84a.13.13,0,1,0-.13-.13A.13.13,0,0,0,50.73,116.84Z" fill="#003134"/><path d="M54.33,116.86a.15.15,0,0,0,.15-.15.15.15,0,1,0-.3,0A.15.15,0,0,0,54.33,116.86Z" fill="#003134"/><circle cx="57.93" cy="116.71" r="0.17" fill="#003134"/><path d="M61.53,116.9a.2.2,0,0,0,.19-.19.19.19,0,0,0-.19-.19.18.18,0,0,0-.19.19A.19.19,0,0,0,61.53,116.9Z" fill="#003134"/><path d="M65.13,116.91a.2.2,0,1,0-.2-.2A.2.2,0,0,0,65.13,116.91Z" fill="#003134"/><path d="M68.73,116.93a.22.22,0,1,0-.22-.22A.22.22,0,0,0,68.73,116.93Z" fill="#003134"/><circle cx="72.33" cy="116.71" r="0.23" fill="#003134"/><path d="M75.93,117a.25.25,0,1,0-.25-.25A.25.25,0,0,0,75.93,117Z" fill="#003134"/><path d="M79.53,117a.26.26,0,0,0,.26-.26.26.26,0,1,0-.52,0A.26.26,0,0,0,79.53,117Z" fill="#003134"/><path d="M83.13,117a.27.27,0,1,0-.27-.27A.27.27,0,0,0,83.13,117Z" fill="#003134"/><path d="M86.73,117a.29.29,0,0,0,.28-.28.28.28,0,0,0-.28-.28.27.27,0,0,0-.28.28A.28.28,0,0,0,86.73,117Z" fill="#003134"/><circle cx="90.33" cy="116.71" r="0.29" fill="#003134"/><path d="M93.93,117a.31.31,0,0,0,.3-.3.3.3,0,0,0-.3-.3.29.29,0,0,0-.3.3A.3.3,0,0,0,93.93,117Z" fill="#003134"/><path d="M97.53,117a.31.31,0,0,0,.3-.3.3.3,0,0,0-.3-.3.29.29,0,0,0-.3.3A.3.3,0,0,0,97.53,117Z" fill="#003134"/><path d="M101.13,117a.31.31,0,1,0-.31-.31A.31.31,0,0,0,101.13,117Z" fill="#003134"/><path d="M104.73,117a.31.31,0,1,0-.31-.31A.31.31,0,0,0,104.73,117Z" fill="#003134"/><path d="M108.33,117a.31.31,0,1,0-.31-.31A.31.31,0,0,0,108.33,117Z" fill="#003134"/><path d="M111.93,117a.31.31,0,1,0-.31-.31A.31.31,0,0,0,111.93,117Z" fill="#003134"/><path d="M115.53,117a.27.27,0,1,0-.27-.27A.27.27,0,0,0,115.53,117Z" fill="#003134"/></g></g></g></svg>