<svg xmlns="http://www.w3.org/2000/svg" xmlns:xlink="http://www.w3.org/1999/xlink" viewBox="0 0 158.11 158.11"><defs><linearGradient id="linear-gradient" x1="23.16" y1="23.16" x2="122.12" y2="122.12" gradientUnits="userSpaceOnUse"><stop offset="0" stop-color="#168c75"/><stop offset="0.53" stop-color="#389b86"/><stop offset="0.68" stop-color="#44a692"/><stop offset="0.97" stop-color="#65c3b0"/><stop offset="1" stop-color="#69c6b4"/></linearGradient><linearGradient id="linear-gradient-2" x1="97.44" y1="97.44" x2="152.5" y2="152.5" gradientTransform="translate(124.97 301.7) rotate(-135)" gradientUnits="userSpaceOnUse"><stop offset="0" stop-color="#69c6b4"/><stop offset="0.16" stop-color="#64c2b0"/><stop offset="0.34" stop-color="#56b6a2"/><stop offset="0.53" stop-color="#3fa18d"/><stop offset="0.58" stop-color="#389b86"/><stop offset="0.63" stop-color="#329883"/><stop offset="0.85" stop-color="#1d8f79"/><stop offset="1" stop-color="#168c75"/></linearGradient><linearGradient id="linear-gradient-3" x1="67.23" y1="67.23" x2="90.88" y2="90.88" gradientUnits="userSpaceOnUse"><stop offset="0" stop-color="#69c6b4"/><stop offset="0.18" stop-color="#64c2b0"/><stop offset="0.39" stop-color="#56b6a2"/><stop offset="0.61" stop-color="#3fa18d"/><stop offset="0.67" stop-color="#389b86"/><stop offset="0.71" stop-color="#329883"/><stop offset="0.88" stop-color="#1d8f79"/><stop offset="1" stop-color="#168c75"/></linearGradient></defs><g id="Layer_2" data-name="Layer 2"><g id="circle_line_upside"><path d="M158.09,79.06c0-.5,0-1,0-1.5A79.06,79.06,0,1,0,77.56,158.1c.5,0,1,0,1.5,0v0a17,17,0,0,0,0-34.09h0q-1.17,0-2.34-.06A45,45,0,1,1,124,76.72q.06,1.17.06,2.34h0a17,17,0,0,0,34.09,0Z" fill="url(#linear-gradient)"/></g><g id="bar"><rect x="107.92" y="86.03" width="34.09" height="77.87" rx="17.05" transform="translate(301.7 124.97) rotate(135)" fill="url(#linear-gradient-2)"/></g><g id="circle"><circle cx="79.06" cy="79.06" r="16.73" fill="url(#linear-gradient-3)"/></g></g></svg>