<svg xmlns="http://www.w3.org/2000/svg" viewBox="0 0 158.11 158.11"><g id="Layer_2" data-name="Layer 2"><g id="circle_line_upside_copy" data-name="circle_line_upside copy"><path d="M158.09,79.06c0-.5,0-1,0-1.5A79.06,79.06,0,1,0,77.56,158.1c.5,0,1,0,1.5,0v0a17,17,0,0,0,0-34.09h0q-1.17,0-2.34-.06A45,45,0,1,1,124,76.72q.06,1.17.06,2.34h0a17,17,0,0,0,34.09,0Z" fill="#12a085"/></g><g id="bar_copy" data-name="bar copy"><rect x="107.92" y="86.03" width="34.09" height="77.87" rx="17.05" transform="translate(301.7 124.97) rotate(135)" fill="#12a085"/></g><g id="circle_copy" data-name="circle copy"><circle cx="79.06" cy="79.06" r="16.73" fill="#f26b6c"/></g></g></svg>